<svg width="512" height="512" xmlns="http://www.w3.org/2000/svg">

 <g>
  <title>background</title>
  <rect fill="none" id="canvas_background" height="602" width="802" y="-1" x="-1"/>
 </g>
 <g>
  <title>Layer 1</title>
  <g id="svg_2">
   <path id="svg_3" fill="#a64e3a" d="m256,362.126c-4.367,0 -8.506,-1.941 -11.298,-5.298l-134.444,-161.69c-3.643,-4.382 -4.424,-10.475 -2.004,-15.634c2.42,-5.16 7.605,-8.455 13.304,-8.455l50.865,0l0,-156.355c-0.001,-8.114 6.579,-14.694 14.692,-14.694l137.769,0c8.114,0 14.694,6.58 14.694,14.694l0,156.355l50.865,0c5.698,0 10.882,3.294 13.303,8.455c2.419,5.159 1.638,11.251 -2.004,15.634l-134.443,161.69c-2.793,3.357 -6.934,5.298 -11.299,5.298zm-103.116,-161.69l103.116,124.014l103.116,-124.015l-34.231,0c-8.114,0 -14.694,-6.58 -14.694,-14.694l0,-156.354l-108.382,0l0,156.355c0,8.114 -6.58,14.694 -14.694,14.694l-34.231,0l0,0z"/>
   <path id="svg_4" fill="#a64e3a" d="m464.648,512l-417.296,0c-8.114,0 -14.694,-6.58 -14.694,-14.694l0,-164.567c0,-8.114 6.58,-14.694 14.694,-14.694l123.734,0c4.082,0 7.98,1.697 10.759,4.686l74.155,79.73l15.319,-16.47c5.528,-5.944 14.824,-6.279 20.766,-0.752s6.279,14.824 0.752,20.766l-26.078,28.037c-2.78,2.989 -6.678,4.686 -10.759,4.686l0,0c-4.082,0 -7.98,-1.697 -10.759,-4.686l-80.554,-86.609l-102.641,0l0,135.18l387.909,0l0,-135.18l-109.041,0c-8.114,0 -14.694,-6.58 -14.694,-14.694c0,-8.114 6.58,-14.694 14.694,-14.694l123.734,0c8.114,0 14.694,6.58 14.694,14.694l0,164.567c-0.001,8.116 -6.58,14.694 -14.694,14.694z"/>
   <path id="svg_5" fill="#a64e3a" d="m405.874,407.676l-22.04,0c-8.114,0 -14.694,-6.58 -14.694,-14.694s6.58,-14.694 14.694,-14.694l22.04,0c8.114,0 14.694,6.58 14.694,14.694s-6.58,14.694 -14.694,14.694z"/>
  </g>
  <g id="svg_6"/>
  <g id="svg_7"/>
  <g id="svg_8"/>
  <g id="svg_9"/>
  <g id="svg_10"/>
  <g id="svg_11"/>
  <g id="svg_12"/>
  <g id="svg_13"/>
  <g id="svg_14"/>
  <g id="svg_15"/>
  <g id="svg_16"/>
  <g id="svg_17"/>
  <g id="svg_18"/>
  <g id="svg_19"/>
  <g id="svg_20"/>
 </g>
</svg>