<svg width="512" height="512" xmlns="http://www.w3.org/2000/svg">

 <g>
  <title>background</title>
  <rect fill="none" id="canvas_background" height="602" width="802" y="-1" x="-1"/>
 </g>
 <g>
  <title>Layer 1</title>
  <g id="svg_1">
   <path id="svg_2" fill="#a64e3a" d="m476.694,512l-441.388,0c-8.03,0 -14.54,-6.509 -14.54,-14.54l0,-482.92c0,-8.03 6.509,-14.54 14.54,-14.54l441.389,0c8.03,0 14.54,6.509 14.54,14.54l0,328.698c0,8.03 -6.509,14.54 -14.54,14.54s-14.54,-6.509 -14.54,-14.54l0,-314.158l-412.31,0l0,453.84l412.309,0l0,-51.955c0,-8.03 6.509,-14.54 14.54,-14.54s14.54,6.509 14.54,14.54l0,66.495c0,8.031 -6.509,14.54 -14.54,14.54z"/>
   <path id="svg_3" fill="#a64e3a" d="m411.265,412.064l-36.515,0c-8.03,0 -14.54,-6.509 -14.54,-14.54s6.509,-14.54 14.54,-14.54l36.515,0c8.03,0 14.54,6.509 14.54,14.54s-6.509,14.54 -14.54,14.54z"/>
   <path id="svg_4" fill="#a64e3a" d="m314.158,412.064l-213.423,0c-8.03,0 -14.54,-6.509 -14.54,-14.54s6.509,-14.54 14.54,-14.54l213.425,0c8.03,0 14.54,6.509 14.54,14.54s-6.511,14.54 -14.542,14.54z"/>
  </g>
  <path id="svg_6" fill="#a64e3a" d="m411.265,351.478l-310.53,0c-8.03,0 -14.54,-6.509 -14.54,-14.54l0,-256.969c0,-8.03 6.509,-14.54 14.54,-14.54l310.531,0c8.03,0 14.54,6.509 14.54,14.54l0,256.969c-0.001,8.03 -6.51,14.54 -14.541,14.54zm-113.158,-29.08l98.619,0l0,-227.889l-281.452,0l0,227.889l10.653,0l73.497,-127.302c2.597,-4.499 7.396,-7.27 12.591,-7.27s9.995,2.771 12.591,7.27l73.501,127.302zm-138.043,-0.97l103.904,0l-51.952,-89.982l-51.952,89.982zm160.637,-101.614c-28.15,0 -51.052,-22.902 -51.052,-51.054c0,-28.151 22.902,-51.052 51.052,-51.052s51.052,22.902 51.052,51.052c0.002,28.152 -22.901,51.054 -51.052,51.054zm0,-73.026c-12.116,0 -21.973,9.857 -21.973,21.973s9.857,21.974 21.973,21.974s21.973,-9.858 21.973,-21.974s-9.857,-21.973 -21.973,-21.973z"/>
  <g id="svg_7"/>
  <g id="svg_8"/>
  <g id="svg_9"/>
  <g id="svg_10"/>
  <g id="svg_11"/>
  <g id="svg_12"/>
  <g id="svg_13"/>
  <g id="svg_14"/>
  <g id="svg_15"/>
  <g id="svg_16"/>
  <g id="svg_17"/>
  <g id="svg_18"/>
  <g id="svg_19"/>
  <g id="svg_20"/>
  <g id="svg_21"/>
 </g>
</svg>