<svg width="512" height="512" xmlns="http://www.w3.org/2000/svg">

 <g>
  <title>background</title>
  <rect fill="none" id="canvas_background" height="602" width="802" y="-1" x="-1"/>
 </g>
 <g>
  <title>Layer 1</title>
  <path id="svg_1" fill="#a64e3a" d="m467.163,512l-422.326,0c-7.586,0 -13.734,-6.149 -13.734,-13.734l0,-484.532c-0.001,-7.585 6.148,-13.734 13.734,-13.734l422.326,0c7.586,0 13.734,6.149 13.734,13.734l0,252.338c0,7.586 -6.149,13.734 -13.734,13.734s-13.734,-6.149 -13.734,-13.734l0,-238.603l-394.858,0l0,457.062l394.857,0l0,-135.138c0,-7.586 6.149,-13.734 13.734,-13.734s13.734,6.149 13.734,13.734l0,148.872c0.002,7.586 -6.147,13.735 -13.733,13.735z"/>
  <path id="svg_3" fill="#a64e3a" d="m393.344,135.48l-274.69,0c-7.586,0 -13.734,-6.149 -13.734,-13.734l0,-54.48c0,-7.586 6.149,-13.734 13.734,-13.734l274.69,0c7.586,0 13.734,6.149 13.734,13.734l0,54.481c0.001,7.584 -6.148,13.733 -13.734,13.733zm-260.955,-27.469l247.221,0l0,-27.01l-247.221,0l0,27.01z"/>
  <path id="svg_5" fill="#a64e3a" d="m297.195,243.143l-178.54,0c-7.586,0 -13.734,-6.149 -13.734,-13.734l0,-54.481c0,-7.586 6.149,-13.734 13.734,-13.734l178.54,0c7.586,0 13.734,6.149 13.734,13.734l0,54.481c0,7.585 -6.149,13.734 -13.734,13.734zm-164.806,-27.469l151.071,0l0,-27.012l-151.071,0l0,27.012z"/>
  <g id="svg_7">
   <path id="svg_8" fill="#a64e3a" d="m365.875,350.806l-247.221,0c-7.586,0 -13.734,-6.149 -13.734,-13.734l0,-54.481c0,-7.586 6.149,-13.734 13.734,-13.734l247.221,0c7.586,0 13.734,6.149 13.734,13.734l0,54.481c0.001,7.586 -6.148,13.734 -13.734,13.734zm-233.486,-27.469l219.752,0l0,-27.012l-219.752,0l0,27.012z"/>
   <path id="svg_9" fill="#a64e3a" d="m269.656,458.47l-151.002,0c-7.586,0 -13.734,-6.149 -13.734,-13.734s6.149,-13.734 13.734,-13.734l137.267,0l0,-27.012l-137.267,0c-7.586,0 -13.734,-6.149 -13.734,-13.734s6.149,-13.734 13.734,-13.734l151.001,0c7.586,0 13.734,6.149 13.734,13.734l0,54.481c0.001,7.584 -6.148,13.733 -13.733,13.733z"/>
  </g>
  <g id="svg_10"/>
  <g id="svg_11"/>
  <g id="svg_12"/>
  <g id="svg_13"/>
  <g id="svg_14"/>
  <g id="svg_15"/>
  <g id="svg_16"/>
  <g id="svg_17"/>
  <g id="svg_18"/>
  <g id="svg_19"/>
  <g id="svg_20"/>
  <g id="svg_21"/>
  <g id="svg_22"/>
  <g id="svg_23"/>
  <g id="svg_24"/>
 </g>
</svg>