<svg width="512.002" height="512.002" xmlns="http://www.w3.org/2000/svg">

 <g>
  <title>background</title>
  <rect fill="none" id="canvas_background" height="602" width="802" y="-1" x="-1"/>
 </g>
 <g>
  <title>Layer 1</title>
  <g id="svg_2">
   <path id="svg_3" fill="#a64e3a" d="m171.111,284.015c-30.275,0 -58.666,-11.717 -79.942,-32.994l-58.109,-58.108c-44.08,-44.083 -44.08,-115.805 0,-159.885c21.276,-21.276 49.666,-32.995 79.941,-32.995s58.666,11.717 79.942,32.994l58.109,58.109c44.078,44.081 44.078,115.804 0,159.885c-21.277,21.277 -49.668,32.994 -79.941,32.994zm-58.11,-253.685c-22.182,0 -42.963,8.567 -58.518,24.121c-32.267,32.267 -32.267,84.769 0,117.037l58.109,58.109c15.555,15.555 36.336,24.121 58.519,24.121c22.182,0 42.963,-8.567 58.518,-24.121c32.267,-32.267 32.267,-84.77 0,-117.037l-58.109,-58.109c-15.555,-15.553 -36.339,-24.121 -58.519,-24.121zm58.108,198.462c-15.433,0 -29.932,-5.999 -40.823,-16.889l-58.109,-58.109c-22.509,-22.509 -22.509,-59.137 0,-81.647c10.893,-10.89 25.392,-16.887 40.824,-16.887c15.433,0 29.932,5.997 40.823,16.888l58.11,58.109c22.508,22.511 22.508,59.137 0,81.645c-10.893,10.891 -25.391,16.89 -40.825,16.89zm-58.108,-143.236c-7.341,0 -14.231,2.846 -19.401,8.015c-10.696,10.698 -10.696,28.102 0.002,38.799l58.109,58.109c5.169,5.169 12.058,8.017 19.399,8.017s14.232,-2.848 19.401,-8.018c10.698,-10.696 10.696,-28.101 0,-38.797l-58.112,-58.109c-5.169,-5.171 -12.059,-8.016 -19.398,-8.016z"/>
   <path id="svg_4" fill="#a64e3a" d="m398.999,511.969c-28.951,0 -57.903,-11.019 -79.942,-33.059l-58.109,-58.109c-44.078,-44.081 -44.078,-115.804 0,-159.885c44.083,-44.08 115.802,-44.08 159.885,0c5.916,5.916 5.916,15.508 0,21.425c-5.917,5.914 -15.506,5.914 -21.425,0c-32.267,-32.27 -84.773,-32.267 -117.037,0c-32.267,32.267 -32.267,84.77 0,117.037l58.109,58.109c32.268,32.268 84.772,32.27 117.037,0c32.267,-32.267 32.267,-84.769 0,-117.037c-5.916,-5.916 -5.916,-15.508 0,-21.425c5.919,-5.914 15.508,-5.913 21.425,0c44.08,44.083 44.08,115.805 0,159.885c-22.041,22.038 -50.992,33.059 -79.943,33.059zm-0.001,-55.296c-14.784,0 -29.569,-5.628 -40.823,-16.883l-58.109,-58.109c-22.509,-22.509 -22.508,-59.136 0.002,-81.647c22.509,-22.503 59.134,-22.509 81.645,0c5.917,5.916 5.917,15.506 0.002,21.423c-5.914,5.917 -15.508,5.916 -21.423,0.002c-10.699,-10.696 -28.104,-10.696 -38.799,0c-10.698,10.698 -10.699,28.104 -0.002,38.799l58.109,58.109c5.169,5.169 12.058,8.017 19.401,8.017c7.341,0 14.231,-2.848 19.399,-8.017c10.696,-10.698 10.698,-28.102 0,-38.797c-5.916,-5.916 -5.916,-15.508 0,-21.425c5.917,-5.914 15.506,-5.914 21.425,0c22.508,22.508 22.508,59.134 0,81.645c-11.258,11.256 -26.044,16.883 -40.827,16.883z"/>
   <path id="svg_5" fill="#a64e3a" d="m310.777,325.895c-3.878,0 -7.753,-1.48 -10.712,-4.437l-109.555,-109.555c-5.916,-5.916 -5.916,-15.508 0,-21.425c5.917,-5.914 15.506,-5.914 21.425,0l109.555,109.555c5.916,5.916 5.916,15.508 0,21.425c-2.959,2.957 -6.835,4.437 -10.713,4.437z"/>
  </g>
  <g id="svg_6"/>
  <g id="svg_7"/>
  <g id="svg_8"/>
  <g id="svg_9"/>
  <g id="svg_10"/>
  <g id="svg_11"/>
  <g id="svg_12"/>
  <g id="svg_13"/>
  <g id="svg_14"/>
  <g id="svg_15"/>
  <g id="svg_16"/>
  <g id="svg_17"/>
  <g id="svg_18"/>
  <g id="svg_19"/>
  <g id="svg_20"/>
 </g>
</svg>