<svg width="512" height="512" xmlns="http://www.w3.org/2000/svg">

 <g>
  <title>background</title>
  <rect fill="none" id="canvas_background" height="602" width="802" y="-1" x="-1"/>
 </g>
 <g>
  <title>Layer 1</title>
  <path id="svg_1" fill="#a64e3a" d="m459.796,334.815c-3.191,0 -6.412,-0.974 -9.188,-2.994c-6.981,-5.081 -8.521,-14.86 -3.44,-21.841c4.004,-5.502 4.67,-15.323 5.375,-25.721c0.63,-9.288 1.28,-18.892 4.32,-28.246c2.922,-8.999 7.947,-16.922 12.806,-24.583c5.689,-8.969 11.063,-17.441 11.063,-24.794c0,-7.353 -5.375,-15.823 -11.063,-24.791c-4.859,-7.662 -9.885,-15.586 -12.807,-24.588c-3.036,-9.352 -3.687,-18.956 -4.318,-28.245c-0.704,-10.397 -1.371,-20.22 -5.375,-25.72c-4.084,-5.613 -13.272,-9.284 -22.999,-13.169c-8.607,-3.438 -17.505,-6.993 -25.387,-12.729c-7.778,-5.661 -13.836,-12.972 -19.694,-20.043c-6.727,-8.117 -13.079,-15.786 -19.829,-17.976c-6.25,-2.029 -15.689,0.344 -25.679,2.856c-9.152,2.303 -18.619,4.682 -28.67,4.682c-10.053,0 -19.518,-2.38 -28.671,-4.682c-9.992,-2.512 -19.43,-4.887 -25.677,-2.856c-6.748,2.19 -13.101,9.859 -19.827,17.976c-5.858,7.07 -11.916,14.382 -19.696,20.043c-6.982,5.08 -16.76,3.54 -21.841,-3.441s-3.54,-16.76 3.441,-21.841c4.604,-3.352 9.177,-8.869 14.017,-14.712c8.844,-10.675 18.869,-22.773 34.248,-27.766c14.807,-4.806 29.764,-1.046 42.961,2.273c7.645,1.921 14.865,3.738 21.045,3.738c6.179,0 13.398,-1.817 21.043,-3.738c13.197,-3.319 28.155,-7.079 42.961,-2.273c15.379,4.994 25.404,17.093 34.248,27.766c4.84,5.842 9.413,11.36 14.017,14.712c4.715,3.432 11.452,6.124 18.587,8.974c12.792,5.111 27.291,10.903 36.681,23.808c9.309,12.79 10.361,28.31 11.289,42.004c0.525,7.729 1.019,15.031 2.861,20.704c1.704,5.244 5.477,11.194 9.473,17.493c7.465,11.768 15.928,25.108 15.928,41.54s-8.461,29.772 -15.928,41.543c-3.996,6.299 -7.769,12.248 -9.473,17.491c-1.842,5.674 -2.336,12.975 -2.861,20.704c-0.929,13.694 -1.981,29.215 -11.291,42.007c-3.057,4.204 -7.82,6.435 -12.65,6.435z"/>
  <g fill="#507C5C" id="svg_3">
   <path id="svg_4" fill="#a64e3a" d="m158.298,504.648c-5.489,0 -10.467,-0.749 -15.215,-2.292c-15.379,-4.994 -25.404,-17.093 -34.248,-27.766c-4.84,-5.842 -9.413,-11.361 -14.018,-14.712c-4.717,-3.432 -11.454,-6.124 -18.587,-8.974c-12.792,-5.111 -27.291,-10.903 -36.681,-23.806c-9.309,-12.79 -10.361,-28.312 -11.289,-42.006c-0.524,-7.729 -1.019,-15.031 -2.861,-20.704c-1.703,-5.244 -5.477,-11.192 -9.471,-17.491c-7.467,-11.768 -15.928,-25.108 -15.928,-41.541s8.461,-29.772 15.926,-41.541c3.996,-6.297 7.769,-12.248 9.471,-17.491c1.843,-5.675 2.337,-12.976 2.863,-20.707c0.929,-13.692 1.981,-29.214 11.289,-42.004c9.39,-12.903 23.889,-18.695 36.681,-23.806c7.134,-2.85 13.872,-5.541 18.587,-8.972c4.604,-3.352 9.177,-8.869 14.017,-14.712c8.844,-10.675 18.869,-22.773 34.248,-27.766c4.75,-1.542 9.726,-2.292 15.215,-2.292c9.599,0 18.825,2.32 27.746,4.564c7.643,1.921 14.863,3.738 21.043,3.738c6.18,0 13.4,-1.817 21.043,-3.74c8.922,-2.243 18.146,-4.564 27.746,-4.564c5.489,0 10.464,0.749 15.212,2.29c15.379,4.994 25.404,17.093 34.248,27.766c4.842,5.842 9.413,11.361 14.019,14.713c4.717,3.432 11.454,6.124 18.587,8.974c12.792,5.111 27.291,10.903 36.681,23.804c9.309,12.792 10.362,28.312 11.289,42.006c0.525,7.729 1.019,15.031 2.861,20.706c1.704,5.244 5.477,11.192 9.473,17.491c7.465,11.769 15.928,25.11 15.928,41.543c0,16.433 -8.461,29.772 -15.928,41.543c-3.996,6.297 -7.769,12.248 -9.473,17.491c-1.842,5.672 -2.336,12.973 -2.859,20.703c-0.929,13.694 -1.981,29.215 -11.289,42.007c-9.391,12.903 -23.889,18.695 -36.682,23.806c-7.134,2.85 -13.871,5.541 -18.586,8.974c-4.606,3.352 -9.179,8.871 -14.021,14.713c-8.843,10.673 -18.867,22.771 -34.246,27.765c-4.748,1.542 -9.726,2.292 -15.214,2.292c-9.599,0 -18.825,-2.32 -27.746,-4.564c-7.644,-1.921 -14.863,-3.738 -21.043,-3.738c-6.18,0 -13.4,1.817 -21.045,3.738c-8.92,2.242 -18.144,4.562 -27.743,4.562zm-0.002,-367.315c-2.159,0 -3.977,0.25 -5.559,0.763c-6.748,2.19 -13.101,9.859 -19.827,17.976c-5.858,7.07 -11.916,14.382 -19.696,20.043c-7.881,5.735 -16.778,9.29 -25.385,12.728c-9.728,3.887 -18.917,7.558 -22.999,13.169c-4.004,5.502 -4.67,15.323 -5.375,25.721c-0.63,9.288 -1.28,18.892 -4.318,28.248c-2.922,8.999 -7.947,16.922 -12.806,24.583c-5.689,8.969 -11.063,17.441 -11.063,24.793c0,7.353 5.373,15.825 11.063,24.794c4.859,7.661 9.885,15.582 12.807,24.583c3.036,9.354 3.688,18.958 4.318,28.246c0.705,10.398 1.37,20.22 5.375,25.721c4.084,5.611 13.272,9.282 22.999,13.169c8.607,3.438 17.505,6.993 25.385,12.729c7.78,5.661 13.838,12.973 19.696,20.044c6.726,8.117 13.079,15.784 19.827,17.976c1.582,0.514 3.399,0.763 5.558,0.763c5.728,0 12.718,-1.759 20.118,-3.619c9.154,-2.301 18.62,-4.682 28.671,-4.682s19.518,2.38 28.671,4.682c7.401,1.86 14.391,3.619 20.119,3.619c2.159,0 3.977,-0.25 5.559,-0.763c6.746,-2.19 13.1,-9.857 19.826,-17.974c5.86,-7.071 11.918,-14.383 19.699,-20.046c7.88,-5.735 16.777,-9.29 25.383,-12.728c9.729,-3.887 18.917,-7.556 23.001,-13.169c4.004,-5.502 4.668,-15.323 5.375,-25.723c0.628,-9.287 1.28,-18.891 4.317,-28.243c2.924,-9.001 7.948,-16.924 12.807,-24.585c5.689,-8.969 11.063,-17.441 11.063,-24.794c0,-7.353 -5.375,-15.825 -11.063,-24.794c-4.859,-7.661 -9.884,-15.582 -12.806,-24.583c-3.038,-9.354 -3.688,-18.959 -4.32,-28.248c-0.704,-10.397 -1.37,-20.22 -5.375,-25.72c-4.082,-5.611 -13.27,-9.282 -22.999,-13.169c-8.607,-3.438 -17.504,-6.993 -25.385,-12.728c-7.78,-5.661 -13.838,-12.973 -19.697,-20.044c-6.726,-8.117 -13.078,-15.786 -19.827,-17.976c-1.582,-0.514 -3.399,-0.763 -5.558,-0.763c-5.728,0 -12.718,1.759 -20.119,3.619c-9.154,2.303 -18.62,4.684 -28.671,4.684c-10.053,0 -19.518,-2.381 -28.671,-4.684c-7.399,-1.86 -14.389,-3.618 -20.118,-3.618z"/>
   <path id="svg_5" fill="#a64e3a" d="m150.775,268.863c-6.161,0 -10.301,2.869 -10.301,7.139l0,25.16l-12.101,-23.079c-4.137,-7.947 -6.938,-9.219 -13.811,-9.219c-6.161,0 -10.301,2.91 -10.301,7.242l0,64.775c0,4.263 4.235,7.242 10.301,7.242c6.066,0 10.301,-2.978 10.301,-7.242l0,-25.54l14.976,27.27c2.652,4.884 7.237,5.509 10.936,5.509c6.066,0 10.301,-2.978 10.301,-7.242l0,-64.875c0,-4.271 -4.14,-7.14 -10.301,-7.14z"/>
   <path id="svg_6" fill="#a64e3a" d="m213.002,287.427c4.202,0 7.139,-3.858 7.139,-9.384c0,-5.405 -2.936,-9.18 -7.139,-9.18l-36.315,0c-5.378,0 -9.282,3.046 -9.282,7.242l0,64.775c0,4.196 3.904,7.242 9.282,7.242l36.315,0c4.202,0 7.139,-3.776 7.139,-9.18c0,-5.525 -2.936,-9.384 -7.139,-9.384l-24.993,0l0,-12.651l12.956,0c4.687,0 7.139,-4.207 7.139,-8.364c0,-4.964 -3.002,-8.567 -7.139,-8.567l-12.956,0l0,-12.549l24.993,0l0,0z"/>
   <path id="svg_7" fill="#a64e3a" d="m308.721,268.863c-3.827,0 -6.508,1.698 -7.348,4.637l-12.99,43.838l-6.036,-25.829c-0.924,-4.157 -5.658,-6.019 -9.939,-6.019c-4.281,0 -9.016,1.86 -9.934,5.994l-6.043,25.854l-12.983,-43.816c-0.846,-2.961 -3.525,-4.659 -7.356,-4.659c-5.281,0 -12.648,3.299 -12.648,8.669c0,0.683 0.12,1.454 0.319,2.053l20.291,62.2c1.327,4.22 6.329,6.946 12.745,6.946c5.455,0 11.464,-2.204 12.595,-7.148l3.014,-13.736l3.021,13.756c1.124,4.923 7.132,7.128 12.589,7.128c6.393,0 11.269,-2.639 12.736,-6.923l20.295,-62.208c0.203,-0.61 0.325,-1.384 0.325,-2.07c-0.003,-5.368 -7.37,-8.667 -12.653,-8.667z"/>
  </g>
  <g id="svg_8"/>
  <g id="svg_9"/>
  <g id="svg_10"/>
  <g id="svg_11"/>
  <g id="svg_12"/>
  <g id="svg_13"/>
  <g id="svg_14"/>
  <g id="svg_15"/>
  <g id="svg_16"/>
  <g id="svg_17"/>
  <g id="svg_18"/>
  <g id="svg_19"/>
  <g id="svg_20"/>
  <g id="svg_21"/>
  <g id="svg_22"/>
 </g>
</svg>