<svg width="330" height="330" xmlns="http://www.w3.org/2000/svg">

 <g>
  <title>background</title>
  <rect fill="none" id="canvas_background" height="602" width="802" y="-1" x="-1"/>
 </g>
 <g>
  <title>Layer 1</title>
  <g id="XMLID_350_">
   <path fill="#a64e3a" d="m329.986,14.723c-0.005,-0.266 -0.021,-0.532 -0.04,-0.797c-0.017,-0.237 -0.034,-0.474 -0.061,-0.707c-0.029,-0.239 -0.069,-0.476 -0.109,-0.713c-0.043,-0.252 -0.083,-0.504 -0.138,-0.752c-0.049,-0.22 -0.11,-0.436 -0.168,-0.654c-0.068,-0.253 -0.134,-0.507 -0.215,-0.754c-0.071,-0.218 -0.155,-0.432 -0.236,-0.647c-0.09,-0.236 -0.176,-0.473 -0.277,-0.703c-0.098,-0.225 -0.21,-0.444 -0.32,-0.665c-0.105,-0.211 -0.207,-0.424 -0.322,-0.629c-0.124,-0.223 -0.262,-0.438 -0.398,-0.656c-0.123,-0.196 -0.244,-0.393 -0.375,-0.583c-0.142,-0.204 -0.295,-0.4 -0.448,-0.598c-0.15,-0.196 -0.3,-0.391 -0.46,-0.578c-0.15,-0.176 -0.309,-0.345 -0.468,-0.515c-0.186,-0.198 -0.372,-0.393 -0.568,-0.582c-0.066,-0.063 -0.123,-0.133 -0.19,-0.195c-0.098,-0.091 -0.204,-0.167 -0.304,-0.254c-0.206,-0.181 -0.414,-0.356 -0.628,-0.526c-0.183,-0.144 -0.369,-0.282 -0.557,-0.416c-0.207,-0.148 -0.417,-0.291 -0.631,-0.428c-0.206,-0.132 -0.413,-0.258 -0.624,-0.379c-0.211,-0.121 -0.424,-0.235 -0.64,-0.346c-0.221,-0.113 -0.443,-0.221 -0.668,-0.321c-0.22,-0.099 -0.442,-0.191 -0.667,-0.279c-0.23,-0.09 -0.46,-0.175 -0.692,-0.253c-0.229,-0.077 -0.462,-0.147 -0.696,-0.214c-0.238,-0.067 -0.476,-0.129 -0.716,-0.184c-0.233,-0.054 -0.468,-0.101 -0.705,-0.144c-0.253,-0.046 -0.507,-0.084 -0.762,-0.117c-0.227,-0.029 -0.455,-0.053 -0.684,-0.072c-0.274,-0.022 -0.549,-0.035 -0.823,-0.042c-0.135,-0.003 -0.263,-0.02 -0.396,-0.02l-60,0c-8.284,0 -15,6.716 -15,15s6.716,15 15,15l25.669,0l-91.084,98.371l-38.978,-38.978c-2.882,-2.883 -6.804,-4.448 -10.891,-4.391c-4.076,0.078 -7.945,1.811 -10.717,4.801l-125,134.868c-5.631,6.076 -5.271,15.566 0.805,21.198c2.887,2.676 6.544,3.999 10.193,3.999c4.03,0 8.049,-1.615 11.005,-4.803l114.409,-123.441l38.983,38.983c2.884,2.884 6.847,4.483 10.895,4.391c4.078,-0.078 7.948,-1.814 10.718,-4.806l98.993,-106.914l0,21.722c0,8.284 6.716,15 15,15c8.284,0 15,-6.716 15,-15l0,-60c0,-0.094 -0.012,-0.184 -0.014,-0.277z" id="XMLID_351_"/>
   <path fill="#a64e3a" d="m315,300l-300,0c-8.284,0 -15,6.716 -15,15c0,8.284 6.716,15 15,15l300,0c8.284,0 15,-6.716 15,-15c0,-8.284 -6.716,-15 -15,-15z" id="XMLID_352_"/>
  </g>
  <g id="svg_1"/>
  <g id="svg_2"/>
  <g id="svg_3"/>
  <g id="svg_4"/>
  <g id="svg_5"/>
  <g id="svg_6"/>
  <g id="svg_7"/>
  <g id="svg_8"/>
  <g id="svg_9"/>
  <g id="svg_10"/>
  <g id="svg_11"/>
  <g id="svg_12"/>
  <g id="svg_13"/>
  <g id="svg_14"/>
  <g id="svg_15"/>
 </g>
</svg>