<svg width="256" height="256" xmlns="http://www.w3.org/2000/svg">

 <g>
  <title>background</title>
  <rect fill="none" id="canvas_background" height="602" width="802" y="-1" x="-1"/>
 </g>
 <g>
  <title>Layer 1</title>
  <path fill="#a64e3a" id="svg_1" d="m220.37,102.96c1.66,-4.58 2.5,-9.39 2.5,-14.34c0,-23.29 -18.95,-42.24 -42.24,-42.24c-2.36,0 -4.71,0.19 -7.01,0.58c-5.67,-13.22 -16.76,-23.52 -30.54,-28.11c-26.49,-8.83 -55.23,5.54 -64.08,32.05c-0.06,0.16 -0.11,0.33 -0.17,0.49c-7.15,2.98 -12.97,8.1 -16.84,14.46c-15.43,-2.85 -31.53,2.47 -42.16,14.28c-8.14,9.04 -12.28,20.71 -11.64,32.85c0.63,12.14 5.96,23.31 14.99,31.45c2.91,2.62 6.09,4.83 9.5,6.6c-2.21,8.11 -1.14,16.84 3.16,24.28c4.26,7.37 11.13,12.65 19.35,14.85c2.75,0.74 5.54,1.1 8.31,1.1c5.52,0 10.97,-1.45 15.88,-4.28c3.85,-2.23 7.22,-5.3 9.88,-8.98l47.74,0c3.31,0 6,-2.69 6,-6s-2.69,-6 -6,-6l-51,0c-2.16,0 -4.15,1.16 -5.21,3.03c-1.8,3.15 -4.43,5.83 -7.41,7.56c-4.6,2.65 -9.95,3.35 -15.08,1.98s-9.41,-4.66 -12.07,-9.26c-3.34,-5.79 -3.545,-12.817 -0.56,-18.81c0.872,-1.75 0.927,-3.81 0.247,-5.25c-0.68,-1.45 -2.097,-2.55 -3.597,-3.09c-4.1,-1.46 -7.83,-3.69 -11.1,-6.64c-6.66,-6 -10.58,-14.22 -11.05,-23.17c-0.47,-8.94 2.58,-17.53 8.58,-24.19c7.3,-8.1 18.1,-12.04 28.73,-10.83c-0.48,2.36 -0.75,4.8 -0.75,7.29c0,17.5 12.31,32.05 28.93,35.33c0.88,16.99 14.33,30.05 31.34,30.05l45,0c12.17,0 22.06,9.89 22.06,22.04l0,5.96l12,0l0,-5.96c0,-18.77 -15.28,-34.04 -34.06,-34.04l-45,0c-10.87,0 -19.39,-8.71 -19.39,-19.83l0,-3.55c0,-3.23 -2.55,-5.88 -5.77,-6c-12.96,-0.48 -23.11,-11.02 -23.11,-24c0,-10.55 6.76,-19.76 16.82,-22.91c1.99,-0.63 3.51,-2.24 4.02,-4.26c0.22,-0.88 0.5,-1.82 0.82,-2.77c6.75,-20.22 28.68,-31.18 48.9,-24.44c11.89,3.96 21.16,13.49 24.78,25.51c0.46,1.54 1.52,2.82 2.93,3.57c1.42,0.75 3.08,0.91 4.61,0.42c2.89,-0.9 5.93,-1.36 9.02,-1.36c16.68,0 30.24,13.56 30.24,30.24c0,2.78 -0.37,5.5 -1.1,8.12c-4.54,-1.79 -9.49,-2.77 -14.7,-2.77l-5.67,0c-5.54,-14.74 -21.4,-23.38 -37.09,-19.53c-6.82,1.69 -12.73,5.47 -17.09,10.94c-2.06,2.59 -1.63,6.37 0.96,8.43c2.59,2.07 6.37,1.64 8.43,-0.95c2.69,-3.38 6.35,-5.72 10.58,-6.77c10.48,-2.57 21.132,3.852 23.67,14.35c0.921,3.81 3.328,5.53 6.2,5.53l10.01,0c16.22,0 28.93,13.63 28.93,31.03l0,41l12,0l0,-41c0,-14 -6.06,-26.23 -15.63,-34.04zm-48.326,85.102l75.956,-0.062l0,26l-12,0l0,24l-52,0l0,-24l-12,0l0.044,-25.938z"/>
 </g>
</svg>