<svg width="512" height="512" xmlns="http://www.w3.org/2000/svg">

 <g>
  <title>background</title>
  <rect fill="none" id="canvas_background" height="602" width="802" y="-1" x="-1"/>
 </g>
 <g>
  <title>Layer 1</title>
  <path id="svg_1" fill="#a64e3a" d="m242.078,403.028c-0.152,0 -0.304,-0.001 -0.456,-0.007c-17.504,-0.552 -32.837,-12.116 -38.157,-28.772c-0.016,-0.048 -0.03,-0.095 -0.045,-0.143l-30.659,-99.598c-6.891,-21.737 5.153,-45.049 26.877,-51.997c10.547,-3.368 21.768,-2.428 31.6,2.642c2.015,1.039 3.923,2.225 5.711,3.547l0,-115.747c0,-22.843 18.585,-41.427 41.429,-41.427c22.843,0 41.427,18.585 41.427,41.427l0,36.479c0,7.842 -6.357,14.199 -14.199,14.199c-7.842,0 -14.199,-6.357 -14.199,-14.199l0,-36.479c0,-7.186 -5.846,-13.03 -13.03,-13.03s-13.031,5.846 -13.031,13.03l0,181.065c0,6.993 -5.092,12.945 -12.001,14.027c-6.913,1.082 -13.578,-3.026 -15.716,-9.684l-12.959,-40.331c-2.192,-6.866 -9.541,-10.653 -16.389,-8.468c-6.838,2.187 -10.628,9.54 -8.443,16.389c0.014,0.047 0.03,0.092 0.044,0.139l30.652,99.574c1.687,5.197 6.494,8.799 11.984,8.972c7.838,0.247 13.991,6.803 13.744,14.64c-0.242,7.687 -6.55,13.752 -14.184,13.752z"/>
  <g id="svg_3">
   <path id="svg_4" fill="#a64e3a" d="m128.299,240.785c-7.305,0 -14.216,-3.227 -18.961,-8.857c-4.688,-5.562 -6.668,-12.888 -5.431,-20.101l9.669,-56.373l-40.959,-39.924c-6.797,-6.625 -9.196,-16.347 -6.263,-25.373c2.932,-9.026 10.589,-15.481 19.98,-16.845l56.601,-8.225l25.313,-51.29c4.201,-8.509 12.706,-13.797 22.195,-13.797c9.49,0 17.995,5.288 22.195,13.797l25.313,51.291l56.601,8.225c12.833,1.864 22.113,13.472 21.128,26.428c-0.466,6.13 -4.823,11.262 -10.795,12.718c-5.973,1.458 -12.204,-1.096 -15.437,-6.324c-2.407,-3.889 -6.546,-6.212 -11.072,-6.212c-7.186,0 -13.031,5.846 -13.031,13.032l0,113.505c0,4.115 -1.785,8.026 -4.891,10.723s-7.23,3.916 -11.305,3.334c-2.853,-0.406 -5.572,-1.279 -8.08,-2.6l-50.625,-26.615l-50.625,26.615c-3.568,1.877 -7.552,2.868 -11.52,2.868zm-30.57,-140.433l41.011,39.978c3.347,3.261 4.874,7.961 4.084,12.567l-9.681,56.448l50.693,-26.652c4.137,-2.174 9.079,-2.174 13.215,0l39.898,20.976l0,-90.715c0,-6.712 1.604,-13.057 4.45,-18.67l-14.917,-2.168c-4.625,-0.672 -8.623,-3.577 -10.69,-7.767l-25.347,-51.359l-25.347,51.359c-2.069,4.19 -6.066,7.095 -10.69,7.767l-56.679,8.236z"/>
   <path id="svg_5" fill="#a64e3a" d="m408.456,398.33c-7.008,0 -13.105,-5.188 -14.057,-12.326c-1.035,-7.772 4.427,-14.913 12.199,-15.949c6.773,-0.902 11.88,-6.744 11.88,-13.592l0,-75.964c0,-7.569 -6.158,-13.727 -13.727,-13.727c-2.439,0 -4.747,0.619 -6.857,1.839c-4.393,2.542 -9.808,2.543 -14.203,0.007c-4.394,-2.536 -7.104,-7.224 -7.104,-12.299l0,-0.767c0,-7.569 -6.158,-13.727 -13.729,-13.727c-2.445,0 -4.747,0.616 -6.841,1.83c-4.393,2.546 -9.811,2.554 -14.21,0.018c-4.399,-2.534 -7.109,-7.226 -7.109,-12.303l0,-3.142c0,-7.569 -6.158,-13.727 -13.729,-13.727c-2.689,0 -5.293,0.782 -7.534,2.263c-6.544,4.323 -15.352,2.526 -19.674,-4.015c-4.323,-6.541 -2.526,-15.352 4.015,-19.674c6.899,-4.561 14.92,-6.972 23.192,-6.972c18.049,0 33.483,11.409 39.468,27.393c0.805,-0.047 1.613,-0.07 2.421,-0.07c17.166,0 31.967,10.321 38.524,25.083c1.119,-0.089 2.242,-0.135 3.368,-0.135c23.228,0 42.125,18.897 42.125,42.125l0,75.964c0,21.022 -15.704,38.967 -36.527,41.741c-0.634,0.085 -1.266,0.126 -1.891,0.126z"/>
  </g>
  <path id="svg_7" fill="#a64e3a" d="m392.042,512l-139.173,0c-21.176,0 -38.403,-17.227 -38.403,-38.402l0,-36.577c0,-7.842 6.357,-14.199 14.199,-14.199l187.581,0c7.842,0 14.199,6.357 14.199,14.199l0,36.577c-0.001,21.175 -17.228,38.402 -38.403,38.402zm-149.179,-60.78l0,22.378c0,5.516 4.488,10.004 10.006,10.004l139.174,0c5.516,0 10.004,-4.488 10.004,-10.004l0,-22.378l-159.184,0z"/>
  <g id="svg_8"/>
  <g id="svg_9"/>
  <g id="svg_10"/>
  <g id="svg_11"/>
  <g id="svg_12"/>
  <g id="svg_13"/>
  <g id="svg_14"/>
  <g id="svg_15"/>
  <g id="svg_16"/>
  <g id="svg_17"/>
  <g id="svg_18"/>
  <g id="svg_19"/>
  <g id="svg_20"/>
  <g id="svg_21"/>
  <g id="svg_22"/>
 </g>
</svg>