<svg width="512" height="512" xmlns="http://www.w3.org/2000/svg">

 <g>
  <title>background</title>
  <rect fill="none" id="canvas_background" height="602" width="802" y="-1" x="-1"/>
 </g>
 <g>
  <title>Layer 1</title>
  <path id="svg_1" fill="#a64e3a" d="m319.303,346.545c-29.284,0 -60.009,-15.884 -91.343,-47.209l-71.949,-71.927c-24.429,-24.458 -39.542,-48.646 -44.926,-71.904c-7.086,-30.597 0.545,-56.547 23.328,-79.329l12.43,-12.407c7.669,-7.669 17.871,-11.897 28.724,-11.897c6.56,0 13.117,1.619 18.964,4.679c19.121,10.113 35.273,34.8 43.205,48.619l0.14,0.244c4.671,7.835 2.079,17.932 -5.756,22.603c-7.839,4.668 -17.996,2.061 -22.667,-5.774l-0.367,-0.631c-10.012,-17.441 -21.764,-31.507 -29.941,-35.831c-1.064,-0.555 -2.355,-0.879 -3.581,-0.879c-2.056,0 -3.916,0.771 -5.376,2.233l-12.43,12.407c-14.833,14.833 -19.035,28.891 -14.493,48.509c3.969,17.149 16.118,35.989 36.108,56.001l71.941,71.921c24.913,24.908 47.78,37.537 67.967,37.537c14.832,0 25.069,-4.463 36.523,-15.92l12.42,-12.42c2.423,-2.415 2.938,-5.919 1.335,-8.95c-5.559,-10.513 -26.385,-25.473 -39.103,-33.018c-1.802,-1.014 -3.607,-1.594 -4.966,-1.594c-0.21,0 -0.357,0.015 -0.451,0.03c-0.021,0.031 -0.045,0.069 -0.073,0.114c-0.449,0.756 -0.96,1.477 -1.524,2.152c-5.333,6.379 -12.115,13.591 -13.834,15.264c-8.174,7.956 -19.039,9.95 -29.799,5.465c-6.423,-2.677 -11.778,-7.115 -16.957,-11.41l-0.505,-0.418c-1.98,-1.64 -42.408,-41.567 -42.779,-41.942c-6.44,-6.46 -6.425,-16.918 0.036,-23.358c6.458,-6.441 16.918,-6.423 23.358,0.036c2.04,2.038 36.949,36.427 40.825,40.128l0.145,0.121c1.658,1.374 3.825,3.171 5.66,4.521c2.169,-2.335 5.127,-5.601 7.807,-8.765c6.25,-9.538 16.402,-14.974 28.093,-14.974c7.16,0 14.574,2.073 21.442,5.995c0.076,0.043 0.15,0.086 0.226,0.13c9.317,5.515 40.508,25.102 51.597,46.069c8.417,15.897 5.526,35.099 -7.191,47.777l-12.401,12.401c-17.699,17.708 -36.163,25.601 -59.862,25.601z"/>
  <path id="svg_3" fill="#a64e3a" d="m478.146,327.617c9.12,0 16.516,-7.394 16.516,-16.516l0,-294.585c0.001,-9.122 -7.395,-16.516 -16.516,-16.516l-444.292,0c-9.12,0 -16.516,7.394 -16.516,16.516l0,371.615l0,30.356l0,76.996c0,9.122 7.396,16.516 16.516,16.516l444.292,0c9.12,0 16.516,-7.394 16.516,-16.516l0,-107.351c0,-9.122 -7.396,-16.516 -16.516,-16.516l-427.776,0l0,-338.583l411.26,0l0,278.068c0,9.122 7.396,16.516 16.516,16.516zm-16.516,77.031l0,74.319l-411.26,0l0,-60.48l0,-13.839l411.26,0z"/>
  <g id="svg_4"/>
  <g id="svg_5"/>
  <g id="svg_6"/>
  <g id="svg_7"/>
  <g id="svg_8"/>
  <g id="svg_9"/>
  <g id="svg_10"/>
  <g id="svg_11"/>
  <g id="svg_12"/>
  <g id="svg_13"/>
  <g id="svg_14"/>
  <g id="svg_15"/>
  <g id="svg_16"/>
  <g id="svg_17"/>
  <g id="svg_18"/>
 </g>
</svg>