<svg width="512" height="512" xmlns="http://www.w3.org/2000/svg">

 <g>
  <title>background</title>
  <rect fill="none" id="canvas_background" height="602" width="802" y="-1" x="-1"/>
 </g>
 <g>
  <title>Layer 1</title>
  <g id="svg_1">
   <g id="svg_2">
    <polygon fill="#a64e3a" id="svg_3" points="357.871,391.592 287.48,381.364 256,317.577 224.52,381.364 154.129,391.592 205.064,441.242 193.04,511.349     256,478.249 318.96,511.349 306.936,441.242   "/>
   </g>
  </g>
  <g id="svg_4">
   <g id="svg_5">
    <polygon fill="#a64e3a" id="svg_6" points="512,346.347 451.058,337.491 423.805,282.269 396.55,337.491 335.608,346.347 379.706,389.332 369.296,450.028     423.805,421.372 478.313,450.028 467.902,389.332   "/>
   </g>
  </g>
  <g id="svg_7">
   <g id="svg_8">
    <polygon fill="#a64e3a" id="svg_9" points="176.392,346.347 115.45,337.491 88.195,282.269 60.942,337.491 0,346.347 44.098,389.332 33.688,450.028     88.195,421.372 142.704,450.028 132.294,389.332   "/>
   </g>
  </g>
  <g id="svg_10">
   <g id="svg_11">
    <path fill="#a64e3a" id="svg_12" d="m308.507,182.256c8.547,-11.146 13.643,-25.07 13.643,-40.17c0,-36.476 -29.675,-66.15 -66.15,-66.15s-66.15,29.674 -66.15,66.15c0,15.1 5.096,29.024 13.644,40.17c-26.469,9.845 -45.379,35.362 -45.379,65.219l0,59.184l195.771,0l0,-59.184c0,-29.856 -18.91,-55.373 -45.379,-65.219z"/>
   </g>
  </g>
  <g id="svg_13">
   <g id="svg_14">
    <rect fill="#a64e3a" id="svg_15" height="50.019" width="30.321" y="0.651" x="240.839"/>
   </g>
  </g>
  <g id="svg_16">
   <g id="svg_17">
    <rect fill="#a64e3a" id="svg_18" height="50.019" width="30.321" transform="matrix(0.7071,-0.7071,0.7071,0.7071,8.6121,140.3069) " y="34.748" x="158.511"/>
   </g>
  </g>
  <g id="svg_19">
   <g id="svg_20">
    <rect fill="#a64e3a" id="svg_21" height="30.321" width="50.019" y="126.923" x="114.562"/>
   </g>
  </g>
  <g id="svg_22">
   <g id="svg_23">
    <rect fill="#a64e3a" id="svg_24" height="30.321" width="50.019" y="126.923" x="347.416"/>
   </g>
  </g>
  <g id="svg_25">
   <g id="svg_26">
    <rect fill="#a64e3a" id="svg_27" height="30.321" width="50.019" transform="matrix(0.7071,-0.7071,0.7071,0.7071,56.8332,256.7344) " y="44.603" x="313.313"/>
   </g>
  </g>
  <g id="svg_28"/>
  <g id="svg_29"/>
  <g id="svg_30"/>
  <g id="svg_31"/>
  <g id="svg_32"/>
  <g id="svg_33"/>
  <g id="svg_34"/>
  <g id="svg_35"/>
  <g id="svg_36"/>
  <g id="svg_37"/>
  <g id="svg_38"/>
  <g id="svg_39"/>
  <g id="svg_40"/>
  <g id="svg_41"/>
  <g id="svg_42"/>
 </g>
</svg>