<svg width="304.338" height="304.338" xmlns="http://www.w3.org/2000/svg">

 <g>
  <title>background</title>
  <rect fill="none" id="canvas_background" height="602" width="802" y="-1" x="-1"/>
 </g>
 <g>
  <title>Layer 1</title>
  <g id="svg_1">
   <path fill="#a64e3a" id="svg_2" d="m132.958,172.496l-3.926,0c4.236,-2.622 7.067,-7.296 7.067,-12.644c0,-8.215 -6.66,-14.875 -14.875,-14.875l-48.895,-0.149c-3.366,0 -6.056,-2.954 -5.613,-6.407c0.366,-2.854 2.933,-4.916 5.81,-4.916l13.979,0c3.066,0 4.51,-3.787 2.223,-5.829l-15.963,-14.251c-5.932,-5.296 -14.978,-4.987 -20.538,0.693l-39.864,40.744c-7.652,8.115 -12.363,19.914 -12.363,29.778l0,30.59c0,21.878 17.079,42.054 43.386,42.054l65.8,0c7.877,0 14.688,-5.961 15.232,-13.819c0.401,-5.784 -2.518,-10.907 -7.03,-13.7l4.442,0c7.877,0 14.688,-5.961 15.232,-13.819c0.401,-5.784 -2.518,-10.907 -7.03,-13.7l3.348,0c8.453,0 15.261,-7.053 14.858,-15.595c-0.378,-8 -7.27,-14.155 -15.28,-14.155z"/>
   <path fill="#a64e3a" id="svg_3" d="m291.975,154.863l-39.864,-40.744c-5.561,-5.684 -14.606,-5.988 -20.538,-0.693l-15.963,14.251c-2.287,2.042 -0.843,5.829 2.223,5.829l13.979,0c2.877,0 5.444,2.063 5.81,4.916c0.443,3.453 -2.247,6.407 -5.613,6.407l-48.896,0.149c-8.215,0 -14.875,6.66 -14.875,14.875c0,5.347 2.832,10.022 7.067,12.644l-3.926,0c-8.009,0 -14.901,6.155 -15.278,14.155c-0.403,8.542 6.404,15.595 14.858,15.595l3.348,0c-4.512,2.793 -7.431,7.916 -7.031,13.7c0.544,7.858 7.355,13.819 15.232,13.819l4.443,0c-4.513,2.793 -7.431,7.916 -7.031,13.7c0.544,7.858 7.355,13.819 15.232,13.819l67.131,0c23.226,0 42.054,-18.828 42.054,-42.054l0,-30.59c0.001,-9.865 -5.251,-22.039 -12.362,-29.778z"/>
   <path fill="#a64e3a" id="svg_4" d="m159.669,120.489l0,-65.934c0,-4.143 -3.357,-7.5 -7.5,-7.5c-4.143,0 -7.5,3.357 -7.5,7.5l0,65.935c0,4.143 3.357,7.5 7.5,7.5c4.142,-0.001 7.5,-3.358 7.5,-7.501z"/>
   <path fill="#a64e3a" id="svg_5" d="m115.415,123.687c1.765,3.748 6.237,5.353 9.981,3.587c3.747,-1.766 5.353,-6.234 3.587,-9.981l-23.061,-48.935c-1.765,-3.746 -6.233,-5.353 -9.981,-3.587c-3.747,1.766 -5.353,6.234 -3.587,9.981l23.061,48.935z"/>
   <path fill="#a64e3a" id="svg_6" d="m178.941,127.273c3.745,1.766 8.216,0.161 9.981,-3.587l23.061,-48.935c1.766,-3.747 0.16,-8.216 -3.587,-9.981c-3.746,-1.767 -8.216,-0.161 -9.981,3.587l-23.061,48.935c-1.765,3.747 -0.16,8.216 3.587,9.981z"/>
  </g>
  <g id="svg_7"/>
  <g id="svg_8"/>
  <g id="svg_9"/>
  <g id="svg_10"/>
  <g id="svg_11"/>
  <g id="svg_12"/>
  <g id="svg_13"/>
  <g id="svg_14"/>
  <g id="svg_15"/>
  <g id="svg_16"/>
  <g id="svg_17"/>
  <g id="svg_18"/>
  <g id="svg_19"/>
  <g id="svg_20"/>
  <g id="svg_21"/>
 </g>
</svg>