<svg width="249.611" height="249.611" xmlns="http://www.w3.org/2000/svg">

 <g>
  <title>background</title>
  <rect fill="none" id="canvas_background" height="602" width="802" y="-1" x="-1"/>
 </g>
 <g>
  <title>Layer 1</title>
  <g id="svg_1">
   <path fill="#a64e3a" id="svg_2" d="m124.806,0c-68.818,0 -124.806,55.987 -124.806,124.805c0,18.861 4.213,36.753 11.736,52.798c-2.104,0.421 -4.237,0.758 -6.398,0.998c-2.392,0.266 -4.393,1.935 -5.084,4.239s0.061,4.799 1.911,6.338l1.293,1.075c7.755,6.446 16.472,11.337 25.688,14.616c22.912,27.331 57.289,44.742 95.66,44.742c68.818,0 124.805,-55.987 124.805,-124.805s-55.988,-124.806 -124.805,-124.806zm86.563,197.052c-7.622,-7.351 -16.014,-13.618 -24.993,-18.729c5.843,-17.134 8.93,-35.248 8.93,-53.622c0,-18.308 -3.068,-36.361 -8.873,-53.445c8.958,-5.104 17.33,-11.361 24.936,-18.696c16.373,19.584 26.242,44.783 26.242,72.246s-9.87,52.661 -26.242,72.246zm-80.563,40.399l0,-31.056c3.202,0.887 6.675,0.717 9.893,-0.616c5.713,-2.366 9.404,-7.891 9.404,-14.074l0,-14.732c7.332,1.669 14.444,4.066 21.253,7.153c-8.291,19.883 -20.699,38.036 -36.618,53.043c-1.305,0.114 -2.615,0.212 -3.932,0.282zm-15.934,-0.283c-10.399,-9.804 -19.306,-20.947 -26.541,-33.042c1.955,-0.755 3.891,-1.579 5.802,-2.486l19.745,-9.382l4.927,4.927l0,40.266c-1.317,-0.07 -2.627,-0.168 -3.933,-0.283zm-0.244,-224.704c1.386,-0.125 2.778,-0.23 4.177,-0.304l0,63.143c-14.204,-0.741 -27.931,-4.112 -40.613,-9.871c8.249,-19.843 20.596,-37.97 36.436,-52.968zm-47.114,47.413c-7.559,-4.47 -14.636,-9.863 -21.095,-16.109c13.331,-12.9 29.823,-22.548 48.189,-27.657c-11.282,13.143 -20.4,27.939 -27.094,43.766zm67.469,-47.413c15.845,15.003 28.196,33.137 36.444,52.988c-12.669,5.753 -26.391,9.114 -40.622,9.852l0,-63.144c1.4,0.074 2.792,0.18 4.178,0.304zm20.02,3.647c18.368,5.109 34.861,14.76 48.193,27.661c-6.462,6.255 -13.541,11.641 -21.096,16.113c-6.694,-15.83 -15.813,-30.629 -27.097,-43.774zm28.303,108.59c0,16.477 -2.679,32.726 -7.751,48.149c-8.137,-3.622 -16.659,-6.358 -25.452,-8.155l0,-45.498c0,-8.4 -6.834,-15.234 -15.234,-15.234l-4.063,0l0,-16.644c15.683,-0.735 30.816,-4.347 44.807,-10.584c5.034,15.371 7.693,31.558 7.693,47.966zm-64.5,-37.381l0,16.643l-51.079,0c1.268,-9.279 3.378,-18.399 6.278,-27.249c14.006,6.245 29.146,9.868 44.801,10.606zm-44.858,55.279l0.516,-1.087c1.088,-2.292 0.617,-5.022 -1.177,-6.816l-13.212,-13.212c-1.379,-1.379 -0.95,-2.923 -0.701,-3.524c0.249,-0.6 1.038,-1.996 2.988,-1.996l72.508,0c1.783,0 3.234,1.451 3.234,3.234l0,72.507c0,1.95 -1.396,2.739 -1.996,2.988c-0.601,0.248 -2.146,0.678 -3.524,-0.701l-13.212,-13.212c-1.795,-1.795 -4.525,-2.266 -6.818,-1.177l-23.569,11.199c-21.972,10.441 -47.654,9.062 -68.249,-3.031c23.254,-6.616 42.585,-22.808 53.212,-45.172zm-16.15,67.211c6.273,0 12.562,-0.695 18.744,-2.092c5.25,9.141 11.367,17.804 18.3,25.845c-16.686,-4.603 -31.833,-12.95 -44.477,-24.08c2.469,0.216 4.95,0.327 7.433,0.327zm124.234,-20.125c7.581,4.48 14.683,9.88 21.165,16.154c-13.388,12.956 -29.965,22.632 -48.426,27.724c11.352,-13.168 20.527,-28.003 27.261,-43.878zm-170.032,-64.88c0,-27.465 9.871,-52.665 26.245,-72.25c7.603,7.325 15.977,13.58 24.939,18.682c-3.78,11.12 -6.392,22.652 -7.758,34.397c-3.156,1.611 -5.719,4.304 -7.139,7.733c-2.366,5.712 -1.07,12.229 3.302,16.601l2.925,2.925c0.272,5.468 0.822,10.901 1.628,16.284c-8.289,11.409 -19.626,20.067 -32.72,25.055c-7.31,-14.934 -11.422,-31.708 -11.422,-49.427z"/>
  </g>
 </g>
</svg>