<?xml version="1.0" encoding="utf-8"?>
<!-- Generator: Adobe Illustrator 19.0.0, SVG Export Plug-In . SVG Version: 6.00 Build 0)  -->
<svg version="1.1" id="圖層_1" xmlns="http://www.w3.org/2000/svg" xmlns:xlink="http://www.w3.org/1999/xlink" x="0px" y="0px"
	 viewBox="0 0 320 82" style="enable-background:new 0 0 320 82;" xml:space="preserve">
<style type="text/css">
	.st0{fill:#FFD706;}
	.st1{fill:#2A72B1;}
	.st2{fill:#FFFFFF;}
	.st3{fill:#7AAB0D;}
	.st4{fill:#3B6416;}
	.st5{fill:#78A621;}
	.st6{fill:#39602F;}
	.st7{fill:#009CB0;}
	.st8{fill:#4AAD42;}
	.st9{fill:#666666;}
</style>
<path id="XMLID_33_" class="st0" d="M1.5,51.7C6.2,69.1,22.1,81.8,41,81.8s34.7-12.7,39.5-30.1H1.5z"/>
<path id="XMLID_32_" class="st1" d="M41,0.2C18.6,0.2,0.5,18.3,0.5,40.7c0,3.7,0.5,7.3,1.4,10.7H80c0.9-3.4,1.4-7,1.4-10.7
	C81.4,18.3,63.3,0.2,41,0.2z"/>
<path id="XMLID_31_" class="st2" d="M1.5,51.7h79c-0.9,3.2-2.2,6.3-3.8,9.2c3.3-5.9,5.3-12.8,5.3-20.1c0-3.4-0.4-6.7-1.2-9.9
	c-0.7-0.5-1.6-1-3-1c-3.3,0-4,2.4-4.5,3.2c-0.4,0.7-0.9,0.9-1.3,0.4c-0.4-1.4-1.8-3-4.9-3.1c-3.1-0.1-3.9,2.9-3.9,2.9L62,32.3
	c0,0,0.7-2.5,3.5-3c2.7-0.6,3.8,0.6,3.9,0.2c-0.6-1.6-1.4-3-3.4-3.4c-2.1-0.4-2.6,0.6-2.7,0.9c-0.1,0.3-0.9,1.1-1.3,0.6
	c-2.3-4.1-6.3-1.2-6.3-1.2s-10.1,1-18.4,1.6c-1.1-3.5-2.7-7.9-2.7-7.9s-0.5-2.1-4-2.1c-3.5,0-4.4,3.5-4.4,3.5s-1.5,0.4-1.8,0.3
	c-0.3-0.1-0.7-0.9-2.6-0.9s-2.6,2.1-2.4,3.3c0.2,1.2,0.9,2.1,0.9,2.1s1-0.9,3.1-0.9c2.1,0,2.5,0.8,3.6,1.5c0.3,0.2,0.5,0.7,0.6,1.4
	c-0.7,0-1-0.1-1.1-0.2c-0.5-1-1.2-2-3.1-2c-1.9,0-3.2,1.6-3.2,1.6s-0.7-2.5-5.2-1.9c-4.5,0.5-5,6.2-5,6.2s-1.4-1.4-4.4-1.4
	c-2.4,0-4.4,1.5-4.6,1.7C0.3,35,0,37.9,0,40.9C0,48.2,1.9,55,5.3,60.9C3.6,58.1,2.4,55,1.5,51.7z"/>
<path id="XMLID_30_" class="st3" d="M23.8,55.1c5.7,0.4,10.7,6.9,15.2,9.2s8.4,4,12.3,3.6c1.1-0.1-3.4,2.4-10.4,2.4
	s-15.1-4-24.3-12.9C15.7,56.9,18.5,54.8,23.8,55.1z"/>
<path id="XMLID_29_" class="st3" d="M52.3,66.3c4.1,0.3,12.9-7.1,14.8-8.6c1.9-1.5-3-2.4-5.7-2.1c-2.7,0.2-8.8,4.2-12.6,6.3
	c-3.8,2.1-6.1,2.6-4.4,3.2C46,65.6,49,66.1,52.3,66.3z"/>
<path id="XMLID_28_" class="st4" d="M70.1,57.8c-2.9,0.7-4.2,2.4-7.2,5.1c-3,2.7-11.9,9.4-22.2,9.4s-19.2-6.7-22.2-9.4
	c-3-2.7-4.4-4.4-7.2-5.1c-2.3-0.6-4.4,1.2-6.3,2.6c6.9,12.8,20.5,21.4,36,21.4c15.4,0,28.9-8.5,35.9-21.2
	C74.8,59.2,72.6,57.2,70.1,57.8z"/>
<path id="XMLID_27_" class="st5" d="M31.5,51.7h21.1c0,0,0.2-0.8-1.7-0.8s-5.8,0-7.1,0s-1.3-0.2-1.2-1.1c0.1-0.9,0.6-1.6,2.6-1.6
	s21.8,0,22.2,0s0.8-0.7,1.2-1.1c0.4-0.4,0.7-0.4,0.6-0.8C69.1,46,68,45.7,68.1,45c0.1-0.7-0.1-1.4-0.6-1.8c-0.5-0.4-1.5-0.4-1.2-1.1
	s0.7-1.2,0.2-1.5s-1.4-0.9-1.4-1.7c0.1-0.8,0.7-0.6,0.2-1.2c-0.5-0.6-1.2-0.8-0.9-1.5s0.8-1.2,0.7-1.9s-0.7-0.7-1.1-1.5
	c-0.4-0.8-0.2-1.3-1.5-1.6c-1.3-0.3-2.4,0.3-2.8-0.4c-0.3-0.7,0.1-2.6-1.1-3.1c-1.2-0.5-2.5-0.2-2.7-0.8c-0.2-0.6,0.7-2.5-0.3-3
	s-3.3-1.1-4.2-1.1s-2,0.5-2.2,0s-0.4-2.2-1.5-2.8s-3.3-1.4-4-2.1c-0.7-0.7-2.3-0.7-2.9-0.5c-0.6,0.2-0.8,1.2-1.5,1.2
	c-0.7-0.1-2.9-0.1-3.7,0.4S34,20.6,34,21.4c-0.1,0.8-1.4,2.4-2.4,3.1c-1.1,0.7-3.2,2.2-3.9,2.3c-0.7,0.1-1.5-0.3-2.5-0.3
	c-1,0-0.6,1.5-1.6,1.8c-1,0.3-1.1,0.4-2,1c-0.9,0.6-1.9,1.6-1.4,2.2c0.5,0.7,0.9,1.1,0.6,1.7s-0.6,1.1-1.3,1.2c-0.7,0.1-1-0.7-1,0.4
	c0,1.1,0.2,1,0.4,1.7c0.2,0.7,0.1,1.2-0.4,1.2c-0.5,0.1-2.1-0.5-2.3,0.1c-0.2,0.6-0.2,1.3,0,1.8c0.2,0.5,0.7,1,0.3,2.6
	c-0.4,1.6-1,2-1.3,2.9c-0.2,0.9-0.7,0.6,0,1.4c0.7,0.7,2,0,1.3,0.8c-0.7,0.8-0.9,1.3,0,1.3c0.9,0,3.6,0.1,4.6,0.1
	c0.9,0,0.6-1.4,1.4-1.3c0.7,0.1,1.1,0.9,2.5,0.7s10.8,0,11.6,0s1.7,0.6,1.8,1.4c0.1,0.7,0.1,1.4,0.1,1.4s-4.9,0-6.4,0
	C31.2,51,31.5,51.7,31.5,51.7z"/>
<path id="XMLID_26_" class="st6" d="M68.1,45c0.1-0.7-0.1-1.4-0.6-1.8c-0.5-0.4-1.5-0.4-1.2-1.1c0.3-0.7,0.7-1.2,0.2-1.5
	s-1.4-0.9-1.4-1.7c0.1-0.8,0.7-0.6,0.2-1.2c-0.5-0.6-1.2-0.8-0.9-1.5c0.3-0.7,0.8-1.2,0.7-1.9c-0.1-0.6-0.7-0.7-1.1-1.5
	c-0.4-0.8-0.2-1.3-1.5-1.6c-0.6-0.1-1.2-0.1-1.7,0c0,0.1,0,0.2,0.1,0.3c0.4,1.7,0.1,1.6-0.4,3.1c-0.5,1.4-0.4,2.2-0.4,2.2l-2.4,0.2
	c0,0-0.7-0.2-1,0.2c-0.3,0.5,0.1-0.1,1.1,1.2c0.9,1.3,2-0.4,2.1,1.1c0.1,1.5,0.1,0.8-1.3,1.7C57,42,56.8,41.4,57.4,43
	c0.6,1.6,2,3-0.4,2.5c-2.4-0.5-0.7-1.1-2.2-2c-1.5-0.9-1.9-0.7-2.1-2.6s-1.2-1.4-0.8-3c0.4-1.6-0.7-0.7,2.5-1.6s3.8-1.2,4.9-3.6
	c0.3-0.7,0.5-1.2,0.7-1.7c0,0-0.1-0.1-0.1-0.1c-0.3-0.7,0.1-2.6-1.1-3.1c-1.2-0.5-2.5-0.2-2.7-0.8c-0.2-0.6,0.7-2.5-0.3-3
	c-0.6-0.3-1.7-0.6-2.7-0.9c-0.3,0.5-0.6,0.9-1,1c-0.8,0.2-3.3-0.7-3.3,0.4c0,1.2,0.6,1.9,1.2,2.3c0.6,0.4,0.7,1,2,0.3
	c1.3-0.6,1.8-2.1,2.1-1.4c0.2,0.7,1.4,1.2,0.9,2c-0.6,0.8,0.6,1.4-1.2,1.1c-1.7-0.2-4-1.6-5.2-0.9c-1.2,0.7-0.6,0.7-1.5,1
	c-0.9,0.3-1,1.2-1.4,0.3c-0.4-0.9,0.3-0.7-0.8-2c-1.1-1.2-1-2.4-1.8-1.9c-0.7,0.4-0.9,1.5-1.7,2.9c-0.8,1.4-1.6,1.1-1.4,2.1
	c0.2,1.1,1.1,0.8,1.5,0.7c0.4-0.1,0,1.7,0.8,2.1c0.7,0.4,1.7,0,2.2,1.2c0.6,1.2,0.8,1.4,0.4,2.4c-0.4,1,0.7,1-0.9,1.7
	c-1.6,0.7-2.6,1.9-2.9,2.2s-0.2,0.8-1.2,0.3c-1-0.5-1.4-1.6-2.2-0.7c-0.8,0.9-2.1,1.2-0.9,1.7s1.2,0.4,1.7,0.9
	c0.5,0.4,0.9,0.3,0.9,1.4s0.5,1.2,0.1,2s0.1,1.9-1,1c-1.1-0.9-0.9-2.3-1.8-2.1c-0.9,0.2-0.9-0.2-2.2,0.4c-1.4,0.6-2.6,1.4-3.2,0.7
	c-0.6-0.7,0.1-1.8-0.4-2.3c-0.4-0.5-1.3-1.6-1.8-1.6c-0.5,0-0.8,0.2-1.7,0.7c-0.9,0.4-1.7,0.6-2.5,0.7c-0.8,0.1-1.4-0.4-1.9,0.4
	c-0.4,0.8-0.9,0.9-1.8,1.2c-0.9,0.4-1.4-0.6-2.1,0.4c-0.6,1-0.4,1.6-1,1.8c-0.6,0.2-0.2-0.5-1.2,0c-0.3,0.1-0.6,0.2-0.9,0.3
	c-0.3,0.5-0.2,0.7,0.5,0.7c0.9,0,3.6,0.1,4.6,0.1c0.9,0,0.6-1.4,1.4-1.3c0.7,0.1,1.1,0.9,2.5,0.7c1.4-0.1,10.8,0,11.6,0
	c0.8,0,1.7,0.6,1.8,1.4c0.1,0.7,0.1,1.4,0.1,1.4s-4.9,0-6.4,0c-0.7,0-0.4,0.8-0.4,0.8h21.1c0,0,0.2-0.8-1.7-0.8s-5.8,0-7.1,0
	c-1.3,0-1.3-0.2-1.2-1.1c0.1-0.9,0.6-1.6,2.6-1.6s21.8,0,22.2,0c0.5,0,0.8-0.7,1.2-1.1c0.4-0.4,0.7-0.4,0.6-0.8
	C69.1,46,68,45.7,68.1,45z"/>
<path id="XMLID_25_" class="st5" d="M49.3,39.7c1.5,0.3,1.6,1,1.7,2.8c0.1,1.8,0.6,2-1.7,2s-3,0-4,0c-0.5-0.2,0.8-1.8,0-2.4
	s-2.5-0.6-1.6-1.5c0.9-0.9,0.5-0.4,1.9,0.3c1.4,0.7,1.3,1.2,2.2,0C48.6,39.6,48.2,39.5,49.3,39.7z"/>
<path id="XMLID_24_" class="st5" d="M41.3,45.3c-1.4,0.1-0.9,2-0.3,2.6c0.7,0.6,1.2,0.4,2.7-0.3c1.5-0.7,1.8-0.6,3.6-0.7
	s2-0.1,2-0.9s-0.1-0.9-2-0.8s-1.5,0.3-2.9,0s-1.4-1.3-2.3-0.8C41.2,45,42.2,45.4,41.3,45.3z"/>
<path id="XMLID_23_" class="st5" d="M51.1,45c-0.4,0.5-0.2,0.6,0.4,1.3s1.1,0.6,1.5,0c0.3-0.6,0-1.4-0.6-1.3
	C51.7,45.1,51.1,45,51.1,45z"/>
<g>
	<path class="st2" d="M8.4,63.9c0-0.1,0.1-0.2,0.2-0.2c0.1,0,0.2-0.1,0.3,0c1,0.3,2,0.4,3,0.2c1-0.2,1.9-0.7,2.8-1.4l0.4-0.3
		c0.1-0.1,0.2-0.1,0.3-0.1c0.1,0,0.2,0.1,0.3,0.1c0.1,0.1,0.1,0.2,0.1,0.3c0,0.1-0.1,0.2-0.1,0.3l-0.4,0.3c-0.9,0.8-1.5,1.6-1.8,2.6
		c-0.3,1-0.4,1.9-0.2,3c0,0.1,0,0.2-0.1,0.3C13.1,69,13,69,12.9,69c-0.1,0-0.2,0-0.3-0.1s-0.2-0.2-0.2-0.3c-0.1-0.7-0.1-1.4,0-2.2
		c0.1-0.8,0.4-1.5,0.8-2.2c0,0,0,0,0,0c-0.7,0.3-1.5,0.4-2.3,0.5c-0.8,0-1.5-0.1-2.2-0.3c-0.1,0-0.2-0.1-0.2-0.2
		C8.4,64.1,8.4,64,8.4,63.9z"/>
	<path class="st2" d="M14.3,70.4c0-0.1,0-0.2,0.1-0.3c0.1-0.1,0.2-0.1,0.3-0.1c1.1,0.1,2,0,3-0.4c0.9-0.4,1.7-1.1,2.4-2l0.3-0.4
		c0.1-0.1,0.2-0.1,0.3-0.2c0.1,0,0.2,0,0.3,0.1c0.1,0.1,0.1,0.2,0.2,0.3c0,0.1,0,0.2-0.1,0.3l-0.3,0.4c-0.7,0.9-1.1,1.9-1.3,2.9
		c-0.2,1,0,2,0.4,3c0,0.1,0,0.2,0,0.3c0,0.1-0.1,0.2-0.2,0.2c-0.1,0-0.2,0-0.3,0c-0.1,0-0.2-0.1-0.2-0.2c-0.3-0.7-0.4-1.4-0.4-2.1
		c0-0.8,0.1-1.5,0.4-2.3c0,0,0,0,0,0c-0.7,0.4-1.4,0.7-2.1,0.9c-0.8,0.2-1.5,0.2-2.2,0.1c-0.1,0-0.2-0.1-0.3-0.2
		C14.3,70.6,14.3,70.5,14.3,70.4z"/>
	<path class="st2" d="M23.8,70.7c-0.1,0-0.2-0.1-0.2-0.2c0-0.1,0-0.2,0-0.3c0-0.1,0.1-0.2,0.2-0.2c0.1,0,0.2,0,0.3,0l1.2,0.6
		c0.1,0,0.2,0.1,0.2,0.2c0,0.1,0,0.2,0,0.3c0,0.1-0.1,0.2-0.2,0.2c-0.1,0-0.2,0-0.3,0l-0.1-0.1c0,0-0.1,0-0.1,0l-0.6,1.3
		c0,0,0,0.1,0,0.1l0.1,0c0.1,0,0.2,0.1,0.2,0.2c0,0.1,0,0.2,0,0.3c0,0.1-0.1,0.2-0.2,0.2c-0.1,0-0.2,0-0.3,0l-0.1,0c0,0-0.1,0-0.1,0
		l-0.7,1.4c0,0,0,0.1,0,0.1c0,0,0.1,0,0.2,0c0.1,0,0.2,0,0.2,0c0.1,0,0.2,0.1,0.2,0.1c0,0.1,0,0.1,0,0.2c0,0.1-0.1,0.2-0.2,0.2
		c-0.1,0.1-0.2,0.1-0.3,0.1c-0.6-0.1-1.2-0.1-1.7-0.2c-0.1,0-0.2-0.1-0.2-0.2c0-0.1-0.1-0.2,0-0.3c0-0.1,0.1-0.2,0.2-0.2
		c0.1-0.1,0.2-0.1,0.3,0c0.2,0,0.3,0.1,0.3,0.1c0,0,0.1,0,0.1,0l0.8-1.7c0,0,0-0.1,0-0.1l-0.2-0.1c-0.1,0-0.2-0.1-0.2-0.2
		c0-0.1,0-0.2,0-0.3c0-0.1,0.1-0.2,0.2-0.2c0.1,0,0.2,0,0.3,0l0.2,0.1c0,0,0.1,0,0.1,0l0.6-1.3c0,0,0-0.1,0-0.1L23.8,70.7z
		 M22.9,75.8c0.9,0,1.7-0.1,2.3-0.3c0,0,0,0,0,0c0,0,0,0,0,0l-0.4-0.2l-0.3-0.2c-0.1-0.1-0.2-0.1-0.2-0.3c0-0.1,0-0.2,0-0.3l0.4-0.7
		c0.1-0.1,0.1-0.2,0.3-0.2s0.2,0,0.3,0l3.2,1.5c0.1,0.1,0.2,0.1,0.2,0.3c0,0.1,0,0.2,0,0.3l-0.4,0.7c-0.1,0.1-0.1,0.2-0.3,0.2
		c-0.1,0-0.2,0-0.3,0L26.5,76c0,0,0,0,0,0c0,0,0,0,0,0c0.1,0.3,0.2,0.6,0.4,0.8c0,0,0.1,0.1,0.1,0c0.2-0.1,0.3-0.1,0.4-0.1
		c0.1,0,0.2,0,0.3,0c0.1,0,0.2,0.1,0.3,0.2c0.1,0.1,0.1,0.2,0,0.3c0,0.1-0.1,0.2-0.2,0.2c-0.1,0-0.3,0.1-0.5,0.1c0,0,0,0,0,0.1
		c0.1,0.1,0.2,0.2,0.3,0.4c0.1,0.1,0.1,0.2,0.1,0.3c0,0.1-0.1,0.2-0.1,0.2c-0.1,0.1-0.2,0.1-0.3,0.1c-0.1,0-0.2-0.1-0.3-0.2
		c-0.5-0.6-0.8-1.2-1-1.8c0,0,0,0,0,0c0,0,0,0,0,0l-0.5,1c-0.1,0.1-0.1,0.2-0.2,0.2c-0.1,0-0.2,0-0.3,0c-0.1-0.1-0.2-0.1-0.2-0.3
		c0-0.1,0-0.2,0-0.3l0.5-1.1c0,0,0,0,0,0c0,0,0,0,0,0c-0.7,0.2-1.4,0.4-2.2,0.4c-0.1,0-0.2,0-0.3-0.1c-0.1-0.1-0.1-0.2-0.1-0.3
		c0-0.1,0-0.2,0.1-0.3C22.7,75.9,22.8,75.8,22.9,75.8z M24.9,73.1c-0.1,0-0.1-0.1-0.2-0.2c0-0.1,0-0.2,0-0.2s0.1-0.1,0.2-0.2
		c0.1,0,0.2,0,0.2,0l4,1.9c0.1,0,0.1,0.1,0.2,0.2c0,0.1,0,0.2,0,0.2c0,0.1-0.1,0.1-0.2,0.2c-0.1,0-0.2,0-0.2,0L24.9,73.1z
		 M25.2,74.7l2.4,1.1c0,0,0.1,0,0.1,0l0.1-0.3c0,0,0-0.1,0-0.1l-2.4-1.1c0,0-0.1,0-0.1,0L25.2,74.7C25.1,74.7,25.1,74.7,25.2,74.7z
		 M29.8,72.5c0.1,0.1,0.2,0.1,0.2,0.3c0,0.1,0,0.2,0,0.3l-0.4,0.8c-0.1,0.1-0.1,0.2-0.3,0.2c-0.1,0-0.2,0-0.3,0l-3.2-1.5l-0.2-0.1
		c-0.1-0.1-0.2-0.1-0.2-0.3c0-0.1,0-0.2,0-0.3l0.4-0.8c0.1-0.1,0.1-0.2,0.3-0.2c0.1,0,0.2,0,0.3,0L29.8,72.5z M26.7,72.3l0.2-0.4
		c0,0,0-0.1,0-0.1l-0.5-0.2c0,0-0.1,0-0.1,0L26.1,72c0,0,0,0.1,0,0.1L26.7,72.3C26.6,72.3,26.7,72.3,26.7,72.3z M27.9,72.8l0.2-0.4
		c0,0,0-0.1,0-0.1l-0.5-0.2c0,0-0.1,0-0.1,0l-0.2,0.4c0,0,0,0.1,0,0.1L27.9,72.8C27.8,72.9,27.8,72.9,27.9,72.8z M29,73.4l0.2-0.4
		c0,0,0-0.1,0-0.1l-0.5-0.2c0,0-0.1,0-0.1,0l-0.2,0.4c0,0,0,0.1,0,0.1L29,73.4C29,73.4,29,73.4,29,73.4z"/>
	<path class="st2" d="M30.5,79.7c-0.1,0.1-0.2,0.1-0.3,0.1c-0.1,0-0.2-0.1-0.3-0.2c-0.1-0.1-0.1-0.2-0.1-0.3l0.6-2.9c0,0,0,0,0,0
		c0,0,0,0,0,0c0,0-0.1,0.1-0.3,0.3c-0.1,0.1-0.2,0.1-0.2,0c-0.1,0-0.1-0.1-0.1-0.2l0-0.1c0-0.3,0.1-0.5,0.3-0.7
		c0.7-0.7,1.2-1.5,1.7-2.5c0-0.1,0.1-0.2,0.2-0.2c0.1,0,0.2,0,0.3,0c0.1,0,0.2,0.1,0.2,0.2c0,0.1,0,0.2,0,0.3
		c-0.2,0.5-0.5,1-0.8,1.5c0,0,0,0.1,0,0.1l-0.9,4.3C30.7,79.6,30.6,79.7,30.5,79.7z M36.3,79.8c0.1,0.1,0.1,0.2,0.1,0.3
		c0,0.1,0,0.2-0.1,0.3c-0.1,0.1-0.1,0.1-0.2,0.1c-0.1,0-0.2,0-0.2-0.1c-0.5-0.7-1-1.3-1.3-2.1c0,0,0,0,0,0c0,0,0,0,0,0l-0.4,1.8
		c0,0.1-0.1,0.2-0.2,0.3c-0.1,0.1-0.2,0.1-0.3,0.1c-0.1,0-0.2-0.1-0.3-0.2c-0.1-0.1-0.1-0.2-0.1-0.3l0.4-1.8c0,0,0,0,0,0
		c0,0,0,0,0,0c-0.5,0.5-1.2,0.9-1.9,1.3c-0.1,0-0.2,0.1-0.3,0c-0.1,0-0.2-0.1-0.2-0.2c0-0.1,0-0.2,0-0.3c0-0.1,0.1-0.2,0.2-0.2
		c0.7-0.3,1.4-0.8,1.9-1.2c0,0,0,0,0-0.1l-1.3-0.3c-0.1,0-0.2-0.1-0.2-0.1s-0.1-0.2,0-0.3c0-0.1,0.1-0.2,0.1-0.2s0.2-0.1,0.3,0
		l1.7,0.4c0,0,0.1,0,0.1-0.1l0.1-0.4c0,0,0-0.1-0.1-0.1l-0.9-0.2l-0.4-0.1c-0.1,0-0.2-0.1-0.3-0.2c-0.1-0.1-0.1-0.2-0.1-0.3l0.4-1.8
		c0-0.1,0.1-0.2,0.2-0.3c0.1-0.1,0.2-0.1,0.3-0.1l3.5,0.7c0.1,0,0.2,0.1,0.3,0.2c0.1,0.1,0.1,0.2,0.1,0.3l-0.4,1.8
		c0,0.1-0.1,0.2-0.2,0.3c-0.1,0.1-0.2,0.1-0.3,0.1L35,76.6c0,0-0.1,0-0.1,0.1L34.8,77c0,0,0,0.1,0.1,0.1l1.7,0.4
		c0.1,0,0.2,0.1,0.2,0.1c0.1,0.1,0.1,0.2,0.1,0.3c0,0.1-0.1,0.2-0.1,0.2c-0.1,0.1-0.2,0.1-0.3,0l-1.3-0.3c0,0-0.1,0,0,0
		C35.4,78.5,35.8,79.2,36.3,79.8z M33.4,75.5l2.6,0.6c0,0,0.1,0,0.1-0.1l0.3-1.2c0,0,0-0.1-0.1-0.1l-2.6-0.6c0,0-0.1,0-0.1,0.1
		L33.4,75.5C33.3,75.5,33.3,75.5,33.4,75.5z"/>
	<path class="st2" d="M50.5,74.6c0,0.1,0,0.2-0.1,0.3c-0.1,0.1-0.1,0.1-0.2,0.2l-2.4,0.5c0,0-0.1,0,0,0.1c0.3,0.8,0.7,1.4,1.3,1.9
		c0.6,0.5,1.3,0.9,2.1,1.2c0.1,0,0.2,0.1,0.2,0.2c0,0.1,0,0.2,0,0.3c0,0.1-0.1,0.2-0.2,0.2c-0.1,0.1-0.2,0.1-0.3,0
		c-0.6-0.2-1.3-0.5-1.8-0.9c-0.6-0.4-1-0.9-1.4-1.5c0,0,0,0,0,0c0,0,0,0,0,0c-0.1,0.7-0.4,1.3-0.7,1.9c-0.4,0.6-0.8,1.1-1.3,1.6
		c-0.1,0.1-0.2,0.1-0.3,0.1c-0.1,0-0.2,0-0.3-0.1c-0.1-0.1-0.1-0.2-0.1-0.3c0-0.1,0-0.2,0.1-0.3c0.7-0.6,1.2-1.2,1.5-1.9
		c0.3-0.7,0.4-1.5,0.4-2.3c0,0,0-0.1-0.1-0.1l-2.4,0.5c-0.1,0-0.2,0-0.3-0.1c-0.1-0.1-0.1-0.1-0.2-0.2c0-0.1,0-0.2,0.1-0.3
		c0.1-0.1,0.1-0.1,0.2-0.2l2.4-0.5c0,0,0.1,0,0.1-0.1l-0.2-1c0-0.1,0-0.2,0.1-0.3c0.1-0.1,0.2-0.2,0.3-0.2c0.1,0,0.2,0,0.3,0.1
		c0.1,0.1,0.2,0.2,0.2,0.3l0.2,1c0,0,0,0.1,0.1,0.1l2.4-0.5c0.1,0,0.2,0,0.3,0.1C50.4,74.4,50.5,74.5,50.5,74.6z"/>
	<path class="st2" d="M51.8,74.6c-0.1,0-0.2,0-0.3,0c-0.1,0-0.2-0.1-0.2-0.2c0-0.1,0-0.2,0-0.3c0-0.1,0.1-0.2,0.2-0.2l0.3-0.1
		c0,0,0.1-0.1,0-0.1l-0.4-0.9c0-0.1-0.1-0.2,0-0.3c0-0.1,0.1-0.2,0.2-0.2c0.1,0,0.2-0.1,0.3,0c0.1,0,0.2,0.1,0.2,0.2l0.4,0.9
		c0,0,0.1,0.1,0.1,0l0.4-0.2c0.1,0,0.2,0,0.3,0c0.1,0,0.2,0.1,0.2,0.2c0,0,0,0,0.1,0l0.2-0.2c0,0,0-0.1,0-0.1l-0.4-1
		c0-0.1-0.1-0.2,0-0.3c0-0.1,0.1-0.2,0.2-0.2c0.1,0,0.2-0.1,0.3,0c0.1,0,0.2,0.1,0.2,0.2l0.4,0.8c0,0,0,0,0.1,0l0.5-0.4
		c0,0,0-0.1,0-0.1l-0.5-1c0-0.1-0.1-0.2,0-0.3c0-0.1,0.1-0.2,0.2-0.2c0.1,0,0.2,0,0.3,0c0.1,0,0.2,0.1,0.2,0.2l0.4,0.8
		c0,0,0,0,0.1,0l1-0.8c0.1-0.1,0.2-0.1,0.3-0.1c0.1,0,0.2,0.1,0.2,0.2c0.4,0.9,0.7,1.6,0.8,2c0.1,0.4,0.2,0.7,0.2,0.9
		c0,0.1-0.1,0.3-0.3,0.3c0,0-0.1,0.1-0.3,0.1c-0.1,0-0.2,0-0.3,0c-0.1,0-0.2-0.1-0.2-0.2c-0.1-0.1-0.1-0.2,0-0.2
		c0-0.1,0.1-0.2,0.2-0.2c0,0,0.1,0,0.1,0c0,0,0.1,0,0.1,0c0,0,0.1,0,0.1-0.1c0,0,0-0.1-0.1-0.2c0-0.1-0.1-0.3-0.2-0.5
		c-0.1-0.2-0.2-0.6-0.4-1c0,0,0-0.1-0.1,0l-0.6,0.5c0,0,0,0.1,0,0.1l1.1,2.4c0,0.1,0.1,0.2,0,0.3c0,0.1-0.1,0.2-0.2,0.2
		c-0.1,0-0.2,0.1-0.3,0c-0.1,0-0.2-0.1-0.2-0.2l-1-2.2c0,0,0,0-0.1,0l-0.5,0.4c0,0,0,0.1,0,0.1l1.4,3c0.1,0.2,0.2,0.2,0.3,0.2
		c0.1,0,0.5-0.2,1.2-0.5c0.2-0.1,0.4-0.2,0.5-0.2c0.1,0,0.2-0.1,0.3-0.2c0.1-0.1,0.2-0.1,0.2-0.2c0,0,0-0.1,0-0.2c0-0.1,0-0.2,0-0.3
		s-0.1-0.2-0.1-0.4c0-0.1,0-0.2,0-0.3c0-0.1,0.1-0.2,0.2-0.2c0.1,0,0.2,0,0.3,0c0.1,0.1,0.2,0.1,0.2,0.2c0.1,0.2,0.1,0.4,0.2,0.5
		c0,0.1,0.1,0.3,0.1,0.4c0,0.1,0,0.2,0,0.3c0,0.1,0,0.2-0.1,0.3c-0.1,0.1-0.1,0.2-0.2,0.2c-0.1,0.1-0.2,0.1-0.3,0.2
		c-0.2,0.1-0.3,0.2-0.5,0.2c-0.1,0.1-0.3,0.2-0.6,0.3c-0.3,0.1-0.6,0.3-0.7,0.3c-0.2,0.1-0.4,0.1-0.5,0.2c-0.2,0-0.3,0.1-0.4,0.1
		c-0.1,0-0.2,0-0.2-0.1c-0.1-0.1-0.1-0.1-0.2-0.2c0-0.1-0.1-0.2-0.2-0.3l-1.4-2.9c0,0,0,0,0,0c0,0,0,0,0,0l-0.2,0.2
		c-0.1,0.1-0.2,0.1-0.3,0.1c-0.1,0-0.2-0.1-0.2-0.2l0-0.1c0,0,0-0.1-0.1,0L53,74c0,0-0.1,0,0,0.1l1.2,2.7c0,0,0,0,0.1,0
		c0.2-0.2,0.3-0.3,0.4-0.4c0.1-0.1,0.1-0.1,0.2-0.1c0.1,0,0.1,0.1,0.2,0.1c0.1,0.1,0.1,0.2,0.1,0.3c0,0.1-0.1,0.2-0.1,0.3
		c-0.4,0.5-0.9,0.9-1.3,1.3c-0.1,0.1-0.2,0.1-0.3,0.1c-0.1,0-0.2-0.1-0.2-0.2c-0.1-0.1-0.1-0.2-0.1-0.3s0.1-0.2,0.1-0.3
		c0.1-0.1,0.2-0.1,0.3-0.2c0,0,0-0.1,0-0.1l-1.4-2.9c0,0,0,0-0.1,0L51.8,74.6z"/>
	<path class="st2" d="M59.7,72.2c-0.1,0.1-0.2,0.1-0.2,0.1c-0.1,0-0.2-0.1-0.2-0.1c-0.1-0.1-0.1-0.2-0.1-0.2c0-0.1,0.1-0.2,0.1-0.2
		l2.2-1.6c0,0,0-0.1,0-0.1l-0.3-0.3c0,0-0.1,0-0.1,0l-1.7,1.2c-0.1,0.1-0.2,0.1-0.2,0.1c-0.1,0-0.2-0.1-0.2-0.1
		C59,70.7,59,70.7,59,70.6c0-0.1,0.1-0.2,0.1-0.2l1.7-1.2c0,0,0-0.1,0-0.1l-0.2-0.3c0,0-0.1,0-0.1,0l-2,1.4
		c-0.1,0.1-0.2,0.1-0.3,0.1c-0.1,0-0.2-0.1-0.2-0.1c-0.1-0.1-0.1-0.2-0.1-0.3c0-0.1,0.1-0.2,0.1-0.2l1-0.7c0,0,0,0,0-0.1
		c0,0,0,0-0.1,0s-0.1,0-0.1,0c-0.1,0-0.2-0.1-0.2-0.2c0-0.1,0-0.2,0.1-0.3c0.1-0.1,0.2-0.2,0.3-0.2c0.1,0,0.2,0,0.3,0
		c0,0,0.1,0.1,0.4,0.2c0,0,0.1,0,0.1,0l1.1-0.8c0,0,0.1-0.1,0.1-0.1c0,0,0-0.1,0-0.2c0-0.1,0-0.2,0-0.2c0-0.1,0-0.2,0.1-0.3
		c0.1-0.1,0.1-0.2,0.3-0.2c0.1,0,0.2,0,0.3,0c0.1,0.1,0.1,0.1,0.2,0.2c0,0.1,0,0.1,0,0.2c0,0,0,0,0.1,0l1-0.7
		c0.1-0.1,0.2-0.1,0.3-0.1c0.1,0,0.2,0.1,0.2,0.1c0.1,0.1,0.1,0.2,0.1,0.3c0,0.1-0.1,0.2-0.1,0.2l-2,1.4c0,0,0,0.1,0,0.1l0.2,0.3
		c0,0,0.1,0,0.1,0l1.7-1.2c0.1-0.1,0.2-0.1,0.2-0.1c0.1,0,0.2,0.1,0.2,0.1c0.1,0.1,0.1,0.2,0.1,0.2c0,0.1-0.1,0.2-0.1,0.2L62,69.1
		c0,0,0,0.1,0,0.1l0.3,0.3c0,0,0.1,0,0.1,0l2.2-1.6c0.1-0.1,0.2-0.1,0.2-0.1c0.1,0,0.2,0.1,0.2,0.1c0.1,0.1,0.1,0.2,0.1,0.2
		c0,0.1-0.1,0.2-0.1,0.2l-2.2,1.6c0,0,0,0.1,0,0.1l0.3,0.4c0,0,0.1,0,0.1,0l2.1-1.5c0.1-0.1,0.2-0.1,0.3-0.1s0.2,0.1,0.2,0.1
		c0.1,0.1,0.1,0.2,0.1,0.3c0,0.1-0.1,0.2-0.1,0.2l-2,1.4c0,0,0,0,0,0.1c0.6,0.2,1.5,0,2.6-0.5c0.1,0,0.2,0,0.3,0
		c0.1,0,0.2,0.1,0.2,0.2c0,0.1,0,0.2,0,0.3c0,0.1-0.1,0.2-0.2,0.2c-0.6,0.2-1.1,0.4-1.7,0.4c-0.5,0.1-1,0-1.4-0.1c0,0-0.1,0-0.1,0
		c0,0.4-0.2,0.9-0.4,1.4c-0.2,0.5-0.6,1-1,1.5c-0.1,0.1-0.2,0.1-0.3,0.2c-0.1,0-0.2,0-0.3-0.1c-0.1-0.1-0.1-0.1-0.1-0.2
		c0-0.1,0-0.2,0.1-0.3c0.8-0.9,1.2-1.6,1.3-2.3c0,0,0-0.1-0.1,0l-2,1.4c-0.1,0.1-0.2,0.1-0.3,0.1c-0.1,0-0.2-0.1-0.2-0.1
		s-0.1-0.2-0.1-0.3c0-0.1,0.1-0.2,0.1-0.2l2.1-1.5c0,0,0-0.1,0-0.1L62,70.7c0,0-0.1,0-0.1,0L59.7,72.2z"/>
	<path class="st2" d="M64.8,66.2c-0.1,0.1-0.2,0.1-0.2,0.1c-0.1,0-0.2,0-0.3-0.1c-0.1-0.1-0.1-0.2-0.1-0.2c0-0.1,0-0.2,0.1-0.3
		l0.3-0.3c0,0,0-0.1,0-0.1c-0.2-0.2-0.4-0.4-0.5-0.6c-0.1-0.1-0.1-0.2-0.1-0.3c0-0.1,0.1-0.2,0.1-0.3c0.1-0.1,0.2-0.1,0.3-0.1
		c0.1,0,0.2,0.1,0.3,0.1c0.1,0.2,0.3,0.4,0.5,0.6c0,0,0.1,0,0.1,0l0.7-0.8c0.1-0.1,0.2-0.1,0.3-0.1c0.1,0,0.2,0,0.3,0.1
		c0.8,0.8,1.4,1.7,1.7,2.5c0,0,0,0.1,0.1,0.1c0.4,0,0.7,0,1,0c0.1,0,0.2,0.1,0.3,0.1c0.1,0.1,0.1,0.2,0.1,0.3c0,0.1,0,0.2-0.1,0.3
		c-0.1,0.1-0.2,0.1-0.3,0.1c-0.3,0-0.5,0-0.8,0c-0.1,0-0.1,0-0.1,0.1c0.2,0.6,0.2,1.3,0.1,2c0,0.1-0.1,0.2-0.1,0.3
		c-0.1,0.1-0.2,0.1-0.3,0.1c-0.1,0-0.2-0.1-0.2-0.1s-0.1-0.2-0.1-0.3c0.1-0.6,0-1.3-0.2-1.9c0-0.1,0-0.1-0.1-0.1
		c-0.2,0-0.4,0-0.7,0.1c0,0-0.1,0,0,0.1c0,0,0,0,0,0c0,0,0,0,0,0c0,0.1,0,0.2,0,0.3C66.9,68,66.8,68,66.7,68c-0.3,0-0.5-0.1-0.6-0.4
		c-0.3-0.5-0.6-1.1-1-1.6c0,0-0.1,0-0.1,0L64.8,66.2z M66.5,66.8c0,0,0.1,0.1,0.1,0.1c0.3-0.1,0.6-0.1,0.8-0.1c0,0,0,0,0,0
		c0,0,0,0,0,0c-0.3-0.6-0.7-1.2-1.2-1.8c0,0-0.1,0-0.1,0l-0.6,0.6c0,0,0,0.1,0,0.1C65.9,65.9,66.2,66.3,66.5,66.8z M70.4,62.3
		c0.1-0.1,0.2-0.1,0.3-0.1c0.1,0,0.2,0,0.3,0.1c0.1,0.1,0.1,0.2,0.1,0.3c0,0.1,0,0.2-0.1,0.3l-0.7,0.8c0,0,0,0.1,0,0.1l1.3,1.3
		c0.4,0.4,0.6,0.6,0.6,0.8c0,0.2-0.2,0.4-0.5,0.8c-0.1,0.1-0.3,0.3-0.5,0.5c-0.1,0.1-0.2,0.1-0.3,0.1s-0.2,0-0.3-0.1
		c-0.1-0.1-0.1-0.1-0.1-0.2c0-0.1,0-0.2,0.1-0.2c0.1-0.1,0.3-0.3,0.4-0.4c0.1-0.1,0.2-0.2,0.2-0.3c0-0.1-0.1-0.1-0.2-0.3l-1.3-1.3
		c0,0-0.1,0-0.1,0l-1.1,1.1c-0.1,0.1-0.2,0.1-0.3,0.1s-0.2,0-0.3-0.1c-0.1-0.1-0.1-0.2-0.1-0.3c0-0.1,0-0.2,0.1-0.3l1.1-1.1
		c0,0,0-0.1,0-0.1l-0.5-0.5c0,0-0.1-0.1-0.1-0.1c0-0.1,0-0.1,0.1-0.1c0,0,0,0,0,0c-0.1-0.5-0.1-1-0.3-1.5c0,0,0,0,0,0c0,0,0,0,0,0
		l-1.7,1.7c-0.1,0.1-0.2,0.1-0.3,0.1c-0.1,0-0.2,0-0.3-0.1C66,63,65.9,63,65.9,62.9c0-0.1,0-0.2,0.1-0.3l2.1-2.1
		c0.1-0.1,0.2-0.1,0.3-0.1c0.1,0,0.2,0,0.3,0.1c0.2,0.2,0.3,0.4,0.4,0.6c0.2,0.6,0.3,1.1,0.3,1.6c0,0,0,0.1,0.1,0.1l0.2,0.2
		c0,0,0.1,0,0.1,0L70.4,62.3z"/>
</g>
<circle id="XMLID_3_" class="st2" cx="39.7" cy="77.2" r="0.9"/>
<g id="XMLID_34_">
	<path id="XMLID_35_" class="st7" d="M113.6,17.8v1.8H93.8v-1.8h9c-0.2-0.6-0.4-1.3-0.6-1.9l2.1-0.5c0.3,0.7,0.7,1.6,0.9,2.4H113.6z
		 M113,34.3c0,1-0.3,1.4-1,1.7c-0.7,0.3-1.8,0.3-3.3,0.3c-0.1-0.5-0.4-1.1-0.7-1.6c1,0,2.1,0,2.3,0c0.3,0,0.4-0.1,0.4-0.4v-6.1H96.6
		v8.2h-2.1v-10H113V34.3z M110.7,20.7v4.7H97v-4.7H110.7z M100.7,34.1v1h-2v-5.9h9.7v4.8H100.7z M108.5,22.2h-9.3v1.7h9.3V22.2z
		 M100.7,30.9v1.8h5.8v-1.8H100.7z"/>
	<path id="XMLID_42_" class="st7" d="M121.1,21.2c-0.7,4.4-1.8,8.1-3.6,10.8c-0.4-0.3-1.3-0.9-1.8-1.2c1.7-2.3,2.7-5.7,3.4-9.6h-2.5
		v-2h2.8c0.2-1.2,0.3-2.4,0.4-3.6l2,0.2c-0.1,1.2-0.3,2.3-0.4,3.5h4.5v2H121.1z M124.6,27.9c0.8,2.3,1.5,5.1,1.9,7.1l-1.7,0.6
		c-0.1-0.5-0.2-1-0.3-1.6c-4.5,0.8-5.3,1-5.7,1.3c-0.1-0.4-0.4-1.3-0.7-1.8c0.4-0.1,0.8-0.8,1.2-1.8c0.5-0.9,1.9-4.7,2.5-8.1l2,0.5
		c-0.8,3.1-2,6.3-3.2,8.8l3.4-0.6c-0.3-1.3-0.7-2.7-1-3.9L124.6,27.9z M136.7,35.3H129v1.1h-1.9V23.1c-0.5,0.8-1,1.5-1.5,2.2
		c-0.2-0.4-0.8-1.3-1.2-1.7c1.7-2,3.1-5,4-7.9l1.8,0.5c-0.4,1.2-0.8,2.5-1.4,3.7h7.7v1.9h-2.8v2.7h2.7v1.8h-2.7v2.7h2.8v1.8h-2.8
		v2.7h3.1V35.3z M129,21.7v2.7h2.8v-2.7H129z M131.8,26.2H129v2.7h2.8V26.2z M129,33.4h2.8v-2.7H129V33.4z M132.6,15.8
		c0.6,1,1.3,2.4,1.5,3.2l-1.9,0.7c-0.3-0.9-0.9-2.3-1.4-3.3L132.6,15.8z"/>
	<path id="XMLID_70_" class="st7" d="M150.3,20.8v2.8h7.3v7.8c0,1.1-0.2,1.8-1.1,2.1c-0.8,0.3-2.1,0.4-4,0.4
		c-0.1-0.6-0.4-1.5-0.8-2.1c1.4,0,2.7,0,3.1,0c0.4,0,0.5-0.1,0.5-0.4v-5.7h-5.1v10.7h-2.2V25.7h-4.8v8.2h-2.1V23.6h6.9v-2.8h-9v-2.1
		h9.4c-0.4-0.9-0.9-1.9-1.3-2.8l2.1-0.6c0.6,1,1.4,2.5,1.7,3.4h8.5v2.1H150.3z"/>
	<path id="XMLID_72_" class="st7" d="M181,21.7c-0.6,3.6-1.4,6.6-2.8,9c1.2,1.7,2.7,3.1,4.5,3.9c-0.5,0.4-1.1,1.2-1.4,1.8
		c-1.8-0.9-3.2-2.2-4.3-3.8c-1.3,1.6-2.9,2.8-4.9,3.9c-0.2-0.5-0.8-1.4-1.2-1.9c2.1-1,3.7-2.3,4.9-4c-0.9-1.7-1.6-3.6-2.1-5.7
		c-0.4,0.7-0.8,1.3-1.2,1.8c-0.3-0.3-0.8-0.8-1.3-1.2h-2.5v5.2l3.6-0.8l0.2,1.9c-3.7,0.9-7.7,1.8-10.6,2.4l-0.4-2.1l1.3-0.3v-9.9
		h1.9v9.5l1.9-0.4V19.1h-4.6v-2h10.3v2h-3.6v4.5h2.8v0.7c1.5-2.3,2.4-5.4,3-8.8l2.1,0.4c-0.3,1.3-0.6,2.6-0.9,3.8h6.8v2H181z
		 M174.9,22c0.5,2.4,1.1,4.6,2.1,6.5c0.9-1.9,1.5-4.2,1.9-6.9H175L174.9,22z"/>
	<path id="XMLID_75_" class="st7" d="M188.2,19.8v5.7c0,3.3-0.3,8.1-2,11c-0.4-0.4-1.3-1-1.8-1.2c1.6-2.8,1.7-6.8,1.7-9.8v-7.6h8.8
		c-0.3-0.7-0.6-1.4-0.9-2l2.1-0.6c0.5,0.8,0.9,1.8,1.2,2.6h7.8v2H188.2z M194.5,20.8c-0.4,1.2-1,2.5-1.7,3.7v12h-2v-8.9
		c-0.5,0.6-1,1.2-1.5,1.7c-0.2-0.5-0.6-1.5-0.9-2c1.8-1.8,3.3-4.6,4-7L194.5,20.8z M205,25.7h-2.4V34c0,1.2-0.3,1.8-1,2.1
		c-0.8,0.3-2,0.4-3.7,0.4c-0.1-0.6-0.4-1.5-0.7-2.1c1.2,0.1,2.5,0,2.8,0c0.4,0,0.5-0.1,0.5-0.5v-8.3h-6.4v-2h6.4v-3.2h2.1v3.2h2.4
		V25.7z M196.5,27c0.9,1.4,2,3.2,2.5,4.3l-1.8,0.8c-0.5-1.2-1.5-3.1-2.4-4.5L196.5,27z"/>
	<path id="XMLID_80_" class="st8" d="M227.5,31.2c-0.9,0.5-2,1.1-2.9,1.5c1,0.9,2.2,1.5,3.6,1.9c-0.4,0.4-1,1.1-1.2,1.6
		c-3.1-1-5.2-3.3-6.3-6.2c-0.7,0.6-1.6,1.3-2.5,1.8v2.3l3.5-0.8c0,0.5,0,1.2,0,1.5c-4.3,1-4.9,1.3-5.3,1.5v0
		c-0.1-0.4-0.4-1.1-0.7-1.5c0.3-0.2,0.8-0.5,0.8-1.5v-0.8c-0.7,0.3-1.5,0.7-2.2,0.9c-0.2-0.4-0.6-0.9-1-1.3
		c-2.1,0.6-4.2,1.3-5.9,1.7l-0.4-1.9c0.7-0.2,1.5-0.4,2.5-0.6v-6h-2v-1.8h2v-4.7h-2.2V17h6.1v1.9h-2.1v4.7h1.8v1.8h-1.8v5.5
		c0.6-0.2,1.3-0.4,1.9-0.6l0.2,1.6c1.8-0.5,3.7-1.3,5.1-2.3h-3.1v-4.8h11v4.8h-4c0.3,0.7,0.7,1.3,1.2,1.9c0.9-0.5,1.9-1.2,2.6-1.7
		L227.5,31.2z M227.7,23.9H214v-1.7h13.7V23.9z M226.9,21.2h-12.1v-4.9h12.1V21.2z M218.4,17.8h-1.8v1.9h1.8V17.8z M217.3,28.2h7.1
		v-1.8h-7.1V28.2z M221.8,17.8h-1.9v1.9h1.9V17.8z M225.1,17.8h-1.9v1.9h1.9V17.8z"/>
	<path id="XMLID_88_" class="st8" d="M237.2,30.9c-2.3,1-4.8,2-6.8,2.7l-0.7-2.2c0.8-0.3,1.7-0.5,2.7-0.9V23h-2.4v-2h2.4v-5.2h2.1
		V21h2.1v2h-2.1v6.8l2.2-0.8L237.2,30.9z M247.9,34.5c0.3,0,0.5,0,0.7-0.1c0.1-0.1,0.3-0.2,0.3-0.5c0.1-0.3,0.1-0.9,0.1-1.8
		c0.4,0.3,1.1,0.7,1.7,0.9c0,0.9-0.1,1.8-0.3,2.2c-0.2,0.4-0.5,0.6-0.9,0.8c-0.3,0.1-1,0.2-1.4,0.2h-1.5c-0.5,0-1.2-0.2-1.6-0.5
		c-0.4-0.3-0.6-0.7-0.6-2v-3.1h-1.8c-0.4,3.1-1.5,4.9-5.8,6c-0.2-0.5-0.7-1.3-1.1-1.7c3.6-0.7,4.5-1.9,4.8-4.3h-2.1V24h10.5v6.6
		h-2.5v3.2c0,0.3,0,0.5,0.2,0.6c0.1,0.1,0.3,0.1,0.5,0.1H247.9z M250,23h-12.7v-1.8h3c-0.2-0.6-0.4-1.3-0.6-1.9l1.7-0.4
		c0.3,0.7,0.6,1.6,0.8,2.2l-0.4,0.1h3.2c0.3-0.7,0.6-1.6,0.8-2.2l1.9,0.4c-0.3,0.6-0.6,1.3-0.9,1.8h3.2V23z M249.4,18.8H238v-1.8
		h4.7c-0.2-0.5-0.3-0.9-0.5-1.3l2-0.4c0.3,0.5,0.5,1.1,0.7,1.7h4.6V18.8z M240.3,26.6h6.6v-1.2h-6.6V26.6z M240.3,29.2h6.6v-1.3
		h-6.6V29.2z"/>
	<path id="XMLID_95_" class="st8" d="M259.8,16.2c-0.7,1.6-1.4,3.2-2.3,4.8v15.4h-2V24.1c-0.6,0.9-1.3,1.7-2,2.4
		c-0.2-0.5-0.8-1.6-1.2-2.1c2.2-2.1,4.3-5.4,5.6-8.7L259.8,16.2z M263.8,29.8c-1,1.9-2.5,4.1-3.7,5.6c-0.4-0.3-1.2-0.9-1.6-1.2
		c1.2-1.3,2.5-3.2,3.4-5L263.8,29.8z M267.3,28.3v8.1h-2.1v-8.1h-6.3v-1.9h6.3V24h-4.7v-7.4h11.8V24h-5v2.4h6.2v1.9H267.3z
		 M262.4,22.1h7.7v-3.7h-7.7V22.1z M269.9,29.2c1.4,1.6,2.9,3.6,3.7,5l-1.7,1c-0.7-1.4-2.2-3.6-3.6-5.1L269.9,29.2z"/>
	<path id="XMLID_101_" class="st8" d="M283.6,21h-8.1v-1.7h4c-0.3-0.8-1-2.1-1.6-3.1l1.6-0.8c0.6,0.9,1.3,2.2,1.7,3l-1.6,0.9h4V21z
		 M282.9,35.1h-4.8v1h-1.8v-7.7h6.5V35.1z M282.8,24h-6.4v-1.7h6.4V24z M276.4,25.4h6.4V27h-6.4V25.4z M278.1,30.2v3.3h3v-3.3H278.1
		z M285.1,24.2c-0.3,0.4-0.7,0.8-1,1.2c-0.2-0.4-0.8-1.2-1.1-1.6c1.2-1.1,2.3-2.8,2.9-4.6l1.3,0.4v-1.1h-3.4v-1.6h3.4v-1.3h1.9v4.1
		h-1.6l0.2,0.1c-0.2,0.4-0.3,0.9-0.5,1.3h2.5c-0.1-0.4-0.3-0.9-0.5-1.3l1.9-0.5l0,0.1v-3.8h1.9v1.3h3.2v1.6h-3.2v1.2h-1.8
		c0.2,0.5,0.4,1,0.5,1.4h4v1.4h-4.2v1h3.6v1.2h-3.6v1h3.6v1.1h-3.6v1h4.7v1.3h-9.3v0.4h-1.8V24.2z M295.3,30.3
		c-0.8,1.4-1.9,2.5-3.3,3.5c1.4,0.5,3,0.8,4.6,1c-0.4,0.4-1,1.2-1.2,1.7c-2-0.3-3.8-0.9-5.5-1.7c-1.8,0.8-3.9,1.4-6,1.7
		c-0.2-0.5-0.6-1.3-0.9-1.7c1.7-0.2,3.5-0.6,5-1.1c-0.9-0.6-1.7-1.4-2.3-2.2l0.8-0.3H284v-1.5h9.7l0.4-0.1L295.3,30.3z M289.7,22.3
		h-2.8v1h2.8V22.3z M289.7,24.4h-2.8v1h2.8V24.4z M289.7,26.6h-2.8v1h2.8V26.6z M287.7,31.2c0.6,0.6,1.4,1.2,2.3,1.7
		c0.9-0.5,1.7-1,2.4-1.7H287.7z"/>
	<path id="XMLID_113_" class="st8" d="M318.1,24.5c0,0,0,0.7,0,0.9c-0.3,6.7-0.5,9.2-1.2,10c-0.5,0.6-1,0.8-1.8,0.9
		c-0.6,0.1-1.8,0.1-2.9,0c0-0.5-0.3-1.4-0.6-1.9c1.1,0.1,2.1,0.1,2.6,0.1c0.4,0,0.6-0.1,0.8-0.3c0.5-0.5,0.7-2.6,0.9-7.8h-13.3
		c-0.3,3.3-1.1,6.9-3,9.5c-0.4-0.4-1.3-1.1-1.7-1.4c2.5-3.6,2.8-8.7,2.8-12.3v-5.5h15.7v6.1h-13.6c0,0.5,0,1.1,0,1.7H318.1z
		 M302.8,18.5V21h11.5v-2.5H302.8z M306.2,34v1.3h-2v-7.4h8.7V34H306.2z M306.2,29.6v2.7h4.8v-2.7H306.2z"/>
</g>
<g id="XMLID_2_">
	<path id="XMLID_118_" class="st9" d="M93.4,54v-9.5h6.9v1.1h-5.6v2.9h5.2v1.1h-5.2v3.2h5.8V54H93.4z"/>
	<path id="XMLID_120_" class="st9" d="M102.1,54v-6.9h1v1c0.5-0.8,1.2-1.1,2.2-1.1c0.4,0,0.8,0.1,1.1,0.2c0.3,0.1,0.6,0.3,0.8,0.6
		c0.2,0.2,0.3,0.5,0.4,0.9c0,0.2,0.1,0.6,0.1,1.1V54h-1.2v-4.2c0-0.5,0-0.8-0.1-1.1c-0.1-0.2-0.3-0.4-0.5-0.6
		c-0.2-0.1-0.5-0.2-0.8-0.2c-0.5,0-0.9,0.2-1.3,0.5s-0.5,0.9-0.5,1.8V54H102.1z"/>
	<path id="XMLID_122_" class="st9" d="M111.3,54l-2.6-6.9h1.2l1.5,4.1c0.2,0.4,0.3,0.9,0.4,1.4c0.1-0.4,0.2-0.8,0.4-1.3l1.5-4.2h1.2
		l-2.6,6.9H111.3z"/>
	<path id="XMLID_124_" class="st9" d="M116.1,45.9v-1.3h1.2v1.3H116.1z M116.1,54v-6.9h1.2V54H116.1z"/>
	<path id="XMLID_127_" class="st9" d="M119,54v-6.9h1v1c0.3-0.5,0.5-0.8,0.7-1c0.2-0.2,0.5-0.2,0.7-0.2c0.4,0,0.8,0.1,1.2,0.4
		l-0.4,1.1c-0.3-0.2-0.6-0.3-0.9-0.3c-0.3,0-0.5,0.1-0.7,0.2c-0.2,0.2-0.3,0.4-0.4,0.6c-0.1,0.4-0.2,0.9-0.2,1.4V54H119z"/>
	<path id="XMLID_129_" class="st9" d="M123,50.6c0-1.3,0.4-2.2,1.1-2.8c0.6-0.5,1.3-0.8,2.2-0.8c0.9,0,1.7,0.3,2.3,0.9
		c0.6,0.6,0.9,1.5,0.9,2.6c0,0.9-0.1,1.6-0.4,2.1c-0.3,0.5-0.7,0.9-1.2,1.2c-0.5,0.3-1.1,0.4-1.7,0.4c-1,0-1.7-0.3-2.3-0.9
		C123.3,52.6,123,51.8,123,50.6z M124.2,50.6c0,0.9,0.2,1.5,0.6,2c0.4,0.4,0.9,0.7,1.4,0.7c0.6,0,1.1-0.2,1.4-0.7s0.6-1.1,0.6-2
		c0-0.8-0.2-1.5-0.6-1.9c-0.4-0.4-0.9-0.7-1.4-0.7c-0.6,0-1.1,0.2-1.4,0.7C124.4,49.1,124.2,49.7,124.2,50.6z"/>
	<path id="XMLID_132_" class="st9" d="M130.8,54v-6.9h1v1c0.5-0.8,1.2-1.1,2.2-1.1c0.4,0,0.8,0.1,1.1,0.2c0.3,0.1,0.6,0.3,0.8,0.6
		c0.2,0.2,0.3,0.5,0.4,0.9c0,0.2,0.1,0.6,0.1,1.1V54h-1.2v-4.2c0-0.5,0-0.8-0.1-1.1c-0.1-0.2-0.3-0.4-0.5-0.6
		c-0.2-0.1-0.5-0.2-0.8-0.2c-0.5,0-0.9,0.2-1.3,0.5s-0.5,0.9-0.5,1.8V54H130.8z"/>
	<path id="XMLID_134_" class="st9" d="M138.1,54v-6.9h1v1c0.2-0.3,0.5-0.6,0.9-0.8c0.4-0.2,0.8-0.3,1.2-0.3c0.5,0,0.9,0.1,1.3,0.3
		s0.6,0.5,0.7,0.9c0.5-0.8,1.3-1.2,2.1-1.2c0.7,0,1.2,0.2,1.6,0.6s0.5,1,0.5,1.7V54h-1.2v-4.3c0-0.5,0-0.8-0.1-1
		c-0.1-0.2-0.2-0.4-0.4-0.5c-0.2-0.1-0.4-0.2-0.7-0.2c-0.5,0-0.9,0.2-1.2,0.5c-0.3,0.3-0.5,0.8-0.5,1.5v4h-1.2v-4.5
		c0-0.5-0.1-0.9-0.3-1.2c-0.2-0.3-0.5-0.4-0.9-0.4c-0.3,0-0.6,0.1-0.9,0.3c-0.3,0.2-0.5,0.4-0.6,0.8s-0.2,0.8-0.2,1.4V54H138.1z"/>
	<path id="XMLID_136_" class="st9" d="M153.9,51.8l1.2,0.1c-0.2,0.7-0.5,1.2-1.1,1.6s-1.2,0.6-2,0.6c-1,0-1.8-0.3-2.4-0.9
		s-0.9-1.5-0.9-2.6c0-1.2,0.3-2.1,0.9-2.7c0.6-0.6,1.4-1,2.3-1c0.9,0,1.7,0.3,2.2,0.9c0.6,0.6,0.9,1.5,0.9,2.6c0,0.1,0,0.2,0,0.3
		H150c0,0.8,0.3,1.3,0.6,1.7c0.4,0.4,0.9,0.6,1.4,0.6c0.4,0,0.8-0.1,1.1-0.3C153.4,52.7,153.7,52.3,153.9,51.8z M150,49.9h3.8
		c-0.1-0.6-0.2-1-0.4-1.3c-0.4-0.4-0.9-0.7-1.4-0.7c-0.5,0-1,0.2-1.3,0.5S150.1,49.3,150,49.9z"/>
	<path id="XMLID_139_" class="st9" d="M156.5,54v-6.9h1v1c0.5-0.8,1.2-1.1,2.2-1.1c0.4,0,0.8,0.1,1.1,0.2c0.3,0.1,0.6,0.3,0.8,0.6
		c0.2,0.2,0.3,0.5,0.4,0.9c0,0.2,0.1,0.6,0.1,1.1V54h-1.2v-4.2c0-0.5,0-0.8-0.1-1.1c-0.1-0.2-0.3-0.4-0.5-0.6
		c-0.2-0.1-0.5-0.2-0.8-0.2c-0.5,0-0.9,0.2-1.3,0.5s-0.5,0.9-0.5,1.8V54H156.5z"/>
	<path id="XMLID_141_" class="st9" d="M166.4,53l0.2,1c-0.3,0.1-0.6,0.1-0.9,0.1c-0.4,0-0.8-0.1-1-0.2c-0.2-0.1-0.4-0.3-0.5-0.5
		s-0.1-0.7-0.1-1.4v-4h-0.9v-0.9h0.9v-1.7l1.2-0.7v2.4h1.2v0.9h-1.2v4c0,0.3,0,0.5,0.1,0.6s0.1,0.2,0.2,0.2c0.1,0.1,0.2,0.1,0.4,0.1
		C166,53,166.2,53,166.4,53z"/>
	<path id="XMLID_143_" class="st9" d="M172,53.2c-0.4,0.4-0.8,0.6-1.2,0.8c-0.4,0.2-0.8,0.2-1.3,0.2c-0.8,0-1.3-0.2-1.7-0.6
		s-0.6-0.8-0.6-1.4c0-0.3,0.1-0.6,0.2-0.9c0.2-0.3,0.4-0.5,0.6-0.7s0.5-0.3,0.8-0.4c0.2-0.1,0.6-0.1,1-0.2c0.9-0.1,1.6-0.2,2.1-0.4
		c0-0.2,0-0.3,0-0.3c0-0.5-0.1-0.8-0.3-1c-0.3-0.3-0.7-0.4-1.3-0.4c-0.5,0-1,0.1-1.2,0.3c-0.3,0.2-0.5,0.5-0.6,1l-1.1-0.2
		c0.1-0.5,0.3-0.9,0.5-1.2c0.2-0.3,0.6-0.5,1-0.7c0.4-0.2,1-0.2,1.6-0.2c0.6,0,1.1,0.1,1.4,0.2c0.4,0.1,0.6,0.3,0.8,0.5
		c0.2,0.2,0.3,0.5,0.4,0.8c0,0.2,0.1,0.6,0.1,1.1v1.6c0,1.1,0,1.8,0.1,2.1c0,0.3,0.1,0.6,0.3,0.8h-1.2
		C172.2,53.8,172.1,53.5,172,53.2z M171.9,50.6c-0.4,0.2-1.1,0.3-1.9,0.4c-0.5,0.1-0.8,0.1-1,0.2s-0.4,0.2-0.5,0.4s-0.2,0.4-0.2,0.6
		c0,0.3,0.1,0.6,0.4,0.8c0.2,0.2,0.6,0.3,1,0.3c0.4,0,0.8-0.1,1.2-0.3c0.3-0.2,0.6-0.5,0.8-0.8c0.1-0.3,0.2-0.7,0.2-1.2V50.6z"/>
	<path id="XMLID_146_" class="st9" d="M174.9,54v-9.5h1.2V54H174.9z"/>
	<path id="XMLID_148_" class="st9" d="M181.7,54v-9.5h3.6c0.6,0,1.1,0,1.4,0.1c0.5,0.1,0.9,0.2,1.2,0.4c0.3,0.2,0.6,0.5,0.8,0.9
		c0.2,0.4,0.3,0.8,0.3,1.3c0,0.8-0.3,1.5-0.8,2c-0.5,0.6-1.4,0.8-2.8,0.8h-2.4V54H181.7z M182.9,49.1h2.5c0.8,0,1.4-0.2,1.7-0.5
		c0.3-0.3,0.5-0.7,0.5-1.3c0-0.4-0.1-0.7-0.3-1s-0.5-0.5-0.8-0.6c-0.2-0.1-0.6-0.1-1.2-0.1h-2.4V49.1z"/>
	<path id="XMLID_151_" class="st9" d="M190.4,54v-6.9h1v1c0.3-0.5,0.5-0.8,0.7-1s0.5-0.2,0.7-0.2c0.4,0,0.8,0.1,1.2,0.4l-0.4,1.1
		c-0.3-0.2-0.6-0.3-0.9-0.3c-0.3,0-0.5,0.1-0.7,0.2c-0.2,0.2-0.3,0.4-0.4,0.6c-0.1,0.4-0.2,0.9-0.2,1.4V54H190.4z"/>
	<path id="XMLID_153_" class="st9" d="M194.3,50.6c0-1.3,0.4-2.2,1.1-2.8c0.6-0.5,1.3-0.8,2.2-0.8c0.9,0,1.7,0.3,2.3,0.9
		c0.6,0.6,0.9,1.5,0.9,2.6c0,0.9-0.1,1.6-0.4,2.1c-0.3,0.5-0.7,0.9-1.2,1.2c-0.5,0.3-1.1,0.4-1.7,0.4c-1,0-1.7-0.3-2.3-0.9
		C194.6,52.6,194.3,51.8,194.3,50.6z M195.5,50.6c0,0.9,0.2,1.5,0.6,2s0.9,0.7,1.4,0.7c0.6,0,1.1-0.2,1.4-0.7s0.6-1.1,0.6-2
		c0-0.8-0.2-1.5-0.6-1.9s-0.9-0.7-1.4-0.7c-0.6,0-1.1,0.2-1.4,0.7S195.5,49.7,195.5,50.6z"/>
	<path id="XMLID_156_" class="st9" d="M204.7,53l0.2,1c-0.3,0.1-0.6,0.1-0.9,0.1c-0.4,0-0.8-0.1-1-0.2c-0.2-0.1-0.4-0.3-0.5-0.5
		s-0.1-0.7-0.1-1.4v-4h-0.9v-0.9h0.9v-1.7l1.2-0.7v2.4h1.2v0.9h-1.2v4c0,0.3,0,0.5,0.1,0.6s0.1,0.2,0.2,0.2c0.1,0.1,0.2,0.1,0.4,0.1
		C204.3,53,204.5,53,204.7,53z"/>
	<path id="XMLID_158_" class="st9" d="M210.5,51.8l1.2,0.1c-0.2,0.7-0.5,1.2-1.1,1.6c-0.5,0.4-1.2,0.6-2,0.6c-1,0-1.8-0.3-2.4-0.9
		c-0.6-0.6-0.9-1.5-0.9-2.6c0-1.2,0.3-2.1,0.9-2.7c0.6-0.6,1.4-1,2.3-1c0.9,0,1.7,0.3,2.3,0.9c0.6,0.6,0.9,1.5,0.9,2.6
		c0,0.1,0,0.2,0,0.3h-5.1c0,0.8,0.3,1.3,0.6,1.7c0.4,0.4,0.9,0.6,1.4,0.6c0.4,0,0.8-0.1,1.1-0.3C210.1,52.7,210.3,52.3,210.5,51.8z
		 M206.7,49.9h3.8c-0.1-0.6-0.2-1-0.4-1.3c-0.4-0.4-0.9-0.7-1.4-0.7c-0.5,0-1,0.2-1.3,0.5S206.7,49.3,206.7,49.9z"/>
	<path id="XMLID_161_" class="st9" d="M217.7,51.5l1.1,0.1c-0.1,0.8-0.4,1.4-1,1.9c-0.5,0.4-1.1,0.7-1.9,0.7c-0.9,0-1.7-0.3-2.3-0.9
		c-0.6-0.6-0.9-1.5-0.9-2.6c0-0.7,0.1-1.4,0.4-1.9c0.2-0.6,0.6-1,1.1-1.3c0.5-0.3,1-0.4,1.6-0.4c0.7,0,1.4,0.2,1.8,0.6
		s0.8,0.9,0.9,1.6l-1.1,0.2c-0.1-0.5-0.3-0.8-0.6-1s-0.6-0.3-1-0.3c-0.6,0-1.1,0.2-1.4,0.6s-0.5,1.1-0.5,2c0,0.9,0.2,1.6,0.5,2
		s0.8,0.6,1.4,0.6c0.5,0,0.8-0.1,1.1-0.4C217.4,52.5,217.6,52.1,217.7,51.5z"/>
	<path id="XMLID_163_" class="st9" d="M222.3,53l0.2,1c-0.3,0.1-0.6,0.1-0.9,0.1c-0.4,0-0.8-0.1-1-0.2c-0.2-0.1-0.4-0.3-0.5-0.5
		S220,52.7,220,52v-4h-0.9v-0.9h0.9v-1.7l1.2-0.7v2.4h1.2v0.9h-1.2v4c0,0.3,0,0.5,0.1,0.6s0.1,0.2,0.2,0.2c0.1,0.1,0.2,0.1,0.4,0.1
		C222,53,222.1,53,222.3,53z"/>
	<path id="XMLID_165_" class="st9" d="M223.5,45.9v-1.3h1.2v1.3H223.5z M223.5,54v-6.9h1.2V54H223.5z"/>
	<path id="XMLID_168_" class="st9" d="M226,50.6c0-1.3,0.4-2.2,1.1-2.8c0.6-0.5,1.3-0.8,2.2-0.8c0.9,0,1.7,0.3,2.3,0.9
		c0.6,0.6,0.9,1.5,0.9,2.6c0,0.9-0.1,1.6-0.4,2.1c-0.3,0.5-0.7,0.9-1.2,1.2c-0.5,0.3-1.1,0.4-1.7,0.4c-1,0-1.7-0.3-2.3-0.9
		C226.3,52.6,226,51.8,226,50.6z M227.2,50.6c0,0.9,0.2,1.5,0.6,2s0.9,0.7,1.4,0.7c0.6,0,1.1-0.2,1.4-0.7s0.6-1.1,0.6-2
		c0-0.8-0.2-1.5-0.6-1.9s-0.9-0.7-1.4-0.7c-0.6,0-1.1,0.2-1.4,0.7S227.2,49.7,227.2,50.6z"/>
	<path id="XMLID_171_" class="st9" d="M233.8,54v-6.9h1v1c0.5-0.8,1.2-1.1,2.2-1.1c0.4,0,0.8,0.1,1.1,0.2s0.6,0.3,0.8,0.6
		c0.2,0.2,0.3,0.5,0.4,0.9c0,0.2,0.1,0.6,0.1,1.1V54h-1.2v-4.2c0-0.5,0-0.8-0.1-1.1c-0.1-0.2-0.3-0.4-0.5-0.6
		c-0.2-0.1-0.5-0.2-0.8-0.2c-0.5,0-0.9,0.2-1.3,0.5c-0.4,0.3-0.5,0.9-0.5,1.8V54H233.8z"/>
	<path id="XMLID_173_" class="st9" d="M244.9,54v-9.5h3.6c0.7,0,1.3,0.1,1.7,0.3s0.8,0.5,1,0.9c0.2,0.4,0.4,0.8,0.4,1.3
		c0,0.4-0.1,0.8-0.3,1.1c-0.2,0.4-0.6,0.6-1,0.9c0.6,0.2,1,0.5,1.3,0.9c0.3,0.4,0.5,0.9,0.5,1.4c0,0.4-0.1,0.9-0.3,1.2
		c-0.2,0.4-0.4,0.7-0.7,0.9c-0.3,0.2-0.6,0.4-1,0.5s-0.9,0.2-1.5,0.2H244.9z M246.2,48.5h2c0.6,0,1,0,1.2-0.1
		c0.3-0.1,0.6-0.3,0.7-0.5c0.2-0.2,0.2-0.5,0.2-0.8c0-0.3-0.1-0.6-0.2-0.8c-0.2-0.2-0.4-0.4-0.6-0.5c-0.3-0.1-0.8-0.1-1.4-0.1h-1.9
		V48.5z M246.2,52.9h2.4c0.4,0,0.7,0,0.9,0c0.3-0.1,0.5-0.1,0.7-0.3c0.2-0.1,0.4-0.3,0.5-0.5s0.2-0.5,0.2-0.8c0-0.4-0.1-0.7-0.3-0.9
		c-0.2-0.3-0.4-0.4-0.8-0.5c-0.3-0.1-0.8-0.2-1.4-0.2h-2.2V52.9z"/>
	<path id="XMLID_177_" class="st9" d="M258.2,54v-1c-0.5,0.8-1.3,1.2-2.2,1.2c-0.4,0-0.8-0.1-1.1-0.2c-0.4-0.2-0.6-0.4-0.8-0.6
		c-0.2-0.2-0.3-0.5-0.4-0.9c0-0.2-0.1-0.6-0.1-1.1v-4.3h1.2V51c0,0.6,0,1,0.1,1.2c0.1,0.3,0.2,0.5,0.5,0.7c0.2,0.2,0.5,0.3,0.9,0.3
		c0.3,0,0.7-0.1,1-0.3c0.3-0.2,0.5-0.4,0.6-0.7c0.1-0.3,0.2-0.8,0.2-1.3v-3.7h1.2V54H258.2z"/>
	<path id="XMLID_179_" class="st9" d="M261,54v-6.9h1v1c0.3-0.5,0.5-0.8,0.7-1s0.5-0.2,0.7-0.2c0.4,0,0.8,0.1,1.2,0.4l-0.4,1.1
		c-0.3-0.2-0.6-0.3-0.9-0.3c-0.3,0-0.5,0.1-0.7,0.2c-0.2,0.2-0.3,0.4-0.4,0.6c-0.1,0.4-0.2,0.9-0.2,1.4V54H261z"/>
	<path id="XMLID_181_" class="st9" d="M270.1,51.8l1.2,0.1c-0.2,0.7-0.5,1.2-1.1,1.6c-0.5,0.4-1.2,0.6-2,0.6c-1,0-1.8-0.3-2.4-0.9
		c-0.6-0.6-0.9-1.5-0.9-2.6c0-1.2,0.3-2.1,0.9-2.7c0.6-0.6,1.4-1,2.3-1c0.9,0,1.7,0.3,2.3,0.9c0.6,0.6,0.9,1.5,0.9,2.6
		c0,0.1,0,0.2,0,0.3h-5.1c0,0.8,0.3,1.3,0.6,1.7c0.4,0.4,0.9,0.6,1.4,0.6c0.4,0,0.8-0.1,1.1-0.3C269.7,52.7,270,52.3,270.1,51.8z
		 M266.3,49.9h3.8c-0.1-0.6-0.2-1-0.4-1.3c-0.4-0.4-0.9-0.7-1.4-0.7c-0.5,0-1,0.2-1.3,0.5S266.4,49.3,266.3,49.9z"/>
	<path id="XMLID_184_" class="st9" d="M277.3,53.2c-0.4,0.4-0.8,0.6-1.2,0.8c-0.4,0.2-0.8,0.2-1.3,0.2c-0.8,0-1.3-0.2-1.7-0.6
		s-0.6-0.8-0.6-1.4c0-0.3,0.1-0.6,0.2-0.9c0.2-0.3,0.4-0.5,0.6-0.7c0.2-0.2,0.5-0.3,0.8-0.4c0.2-0.1,0.6-0.1,1-0.2
		c0.9-0.1,1.6-0.2,2.1-0.4c0-0.2,0-0.3,0-0.3c0-0.5-0.1-0.8-0.3-1c-0.3-0.3-0.7-0.4-1.3-0.4c-0.5,0-1,0.1-1.2,0.3
		c-0.3,0.2-0.5,0.5-0.6,1l-1.1-0.2c0.1-0.5,0.3-0.9,0.5-1.2c0.2-0.3,0.6-0.5,1-0.7c0.4-0.2,1-0.2,1.6-0.2c0.6,0,1.1,0.1,1.4,0.2
		c0.4,0.1,0.6,0.3,0.8,0.5c0.2,0.2,0.3,0.5,0.4,0.8c0,0.2,0.1,0.6,0.1,1.1v1.6c0,1.1,0,1.8,0.1,2.1c0,0.3,0.1,0.6,0.3,0.8h-1.2
		C277.4,53.8,277.3,53.5,277.3,53.2z M277.2,50.6c-0.4,0.2-1.1,0.3-1.9,0.4c-0.5,0.1-0.8,0.1-1,0.2s-0.4,0.2-0.5,0.4
		c-0.1,0.2-0.2,0.4-0.2,0.6c0,0.3,0.1,0.6,0.4,0.8c0.2,0.2,0.6,0.3,1,0.3c0.4,0,0.8-0.1,1.2-0.3c0.3-0.2,0.6-0.5,0.8-0.8
		c0.1-0.3,0.2-0.7,0.2-1.2V50.6z"/>
	<path id="XMLID_187_" class="st9" d="M284.7,54v-1c-0.5,0.8-1.3,1.2-2.2,1.2c-0.4,0-0.8-0.1-1.1-0.2c-0.4-0.2-0.6-0.4-0.8-0.6
		c-0.2-0.2-0.3-0.5-0.4-0.9c0-0.2-0.1-0.6-0.1-1.1v-4.3h1.2V51c0,0.6,0,1,0.1,1.2c0.1,0.3,0.2,0.5,0.5,0.7c0.2,0.2,0.5,0.3,0.9,0.3
		c0.3,0,0.7-0.1,1-0.3c0.3-0.2,0.5-0.4,0.6-0.7c0.1-0.3,0.2-0.8,0.2-1.3v-3.7h1.2V54H284.7z"/>
	<path id="XMLID_189_" class="st9" d="M93.3,69.9v-9.5h1.3v4.7l4.7-4.7h1.7l-4,3.8l4.2,5.6h-1.7l-3.4-4.8l-1.6,1.5v3.3H93.3z"/>
	<path id="XMLID_191_" class="st9" d="M106.5,69.1c-0.4,0.4-0.8,0.6-1.2,0.8c-0.4,0.2-0.8,0.2-1.3,0.2c-0.8,0-1.3-0.2-1.7-0.6
		c-0.4-0.4-0.6-0.8-0.6-1.4c0-0.3,0.1-0.6,0.2-0.9c0.2-0.3,0.4-0.5,0.6-0.7s0.5-0.3,0.8-0.4c0.2-0.1,0.6-0.1,1-0.2
		c0.9-0.1,1.6-0.2,2.1-0.4c0-0.2,0-0.3,0-0.3c0-0.5-0.1-0.8-0.3-1c-0.3-0.3-0.7-0.4-1.3-0.4c-0.5,0-1,0.1-1.2,0.3
		c-0.3,0.2-0.5,0.5-0.6,1l-1.1-0.2c0.1-0.5,0.3-0.9,0.5-1.2c0.2-0.3,0.6-0.5,1-0.7c0.4-0.2,1-0.2,1.6-0.2c0.6,0,1.1,0.1,1.4,0.2
		c0.4,0.1,0.6,0.3,0.8,0.5s0.3,0.5,0.4,0.8c0,0.2,0.1,0.6,0.1,1.1V67c0,1.1,0,1.8,0.1,2.1c0,0.3,0.1,0.6,0.3,0.8h-1.2
		C106.7,69.7,106.6,69.4,106.5,69.1z M106.4,66.5c-0.4,0.2-1.1,0.3-1.9,0.4c-0.5,0.1-0.8,0.1-1,0.2s-0.4,0.2-0.5,0.4
		c-0.1,0.2-0.2,0.4-0.2,0.6c0,0.3,0.1,0.6,0.4,0.8s0.6,0.3,1,0.3c0.4,0,0.8-0.1,1.2-0.3c0.3-0.2,0.6-0.5,0.8-0.8
		c0.1-0.3,0.2-0.7,0.2-1.2V66.5z"/>
	<path id="XMLID_194_" class="st9" d="M109,66.5c0-1.3,0.4-2.2,1.1-2.8c0.6-0.5,1.3-0.8,2.2-0.8c0.9,0,1.7,0.3,2.3,0.9
		c0.6,0.6,0.9,1.5,0.9,2.6c0,0.9-0.1,1.6-0.4,2.1c-0.3,0.5-0.7,0.9-1.2,1.2c-0.5,0.3-1.1,0.4-1.7,0.4c-1,0-1.7-0.3-2.3-0.9
		C109.3,68.5,109,67.6,109,66.5z M110.2,66.5c0,0.9,0.2,1.5,0.6,2c0.4,0.4,0.9,0.7,1.4,0.7c0.6,0,1.1-0.2,1.4-0.7s0.6-1.1,0.6-2
		c0-0.8-0.2-1.5-0.6-1.9c-0.4-0.4-0.9-0.7-1.4-0.7c-0.6,0-1.1,0.2-1.4,0.7C110.4,65,110.2,65.6,110.2,66.5z"/>
	<path id="XMLID_197_" class="st9" d="M116.8,69.9v-9.5h1.2v3.4c0.5-0.6,1.2-0.9,2.1-0.9c0.5,0,1,0.1,1.3,0.3
		c0.4,0.2,0.6,0.5,0.8,0.8s0.2,0.9,0.2,1.5v4.4h-1.2v-4.4c0-0.6-0.1-1-0.4-1.3s-0.6-0.4-1.1-0.4c-0.3,0-0.7,0.1-1,0.3
		c-0.3,0.2-0.5,0.4-0.6,0.7c-0.1,0.3-0.2,0.7-0.2,1.3v3.8H116.8z"/>
	<path id="XMLID_199_" class="st9" d="M123.7,67.9l1.2-0.2c0.1,0.5,0.2,0.8,0.5,1.1c0.3,0.2,0.7,0.4,1.2,0.4c0.5,0,0.9-0.1,1.2-0.3
		c0.3-0.2,0.4-0.5,0.4-0.8c0-0.3-0.1-0.5-0.3-0.6c-0.2-0.1-0.6-0.2-1.2-0.4c-0.9-0.2-1.4-0.4-1.8-0.6c-0.3-0.2-0.6-0.4-0.8-0.7
		c-0.2-0.3-0.3-0.6-0.3-0.9c0-0.3,0.1-0.6,0.2-0.8c0.1-0.3,0.3-0.5,0.6-0.6c0.2-0.1,0.4-0.2,0.7-0.3s0.6-0.1,1-0.1
		c0.5,0,1,0.1,1.4,0.2s0.7,0.4,0.9,0.6c0.2,0.3,0.3,0.6,0.4,1.1L128,65c-0.1-0.4-0.2-0.6-0.4-0.8c-0.2-0.2-0.6-0.3-1.1-0.3
		c-0.5,0-0.9,0.1-1.1,0.3c-0.2,0.2-0.3,0.4-0.3,0.6c0,0.2,0,0.3,0.1,0.4c0.1,0.1,0.2,0.2,0.4,0.3c0.1,0,0.5,0.1,1,0.3
		c0.8,0.2,1.4,0.4,1.7,0.5c0.3,0.1,0.6,0.3,0.8,0.6c0.2,0.3,0.3,0.6,0.3,1c0,0.4-0.1,0.8-0.3,1.1c-0.2,0.3-0.6,0.6-1,0.8
		c-0.4,0.2-0.9,0.3-1.4,0.3c-0.9,0-1.6-0.2-2-0.6C124.1,69.1,123.8,68.6,123.7,67.9z"/>
	<path id="XMLID_201_" class="st9" d="M130.8,61.8v-1.3h1.2v1.3H130.8z M130.8,69.9v-6.9h1.2v6.9H130.8z"/>
	<path id="XMLID_204_" class="st9" d="M138.2,69.9v-1c-0.5,0.8-1.3,1.2-2.2,1.2c-0.4,0-0.8-0.1-1.1-0.2c-0.4-0.2-0.6-0.4-0.8-0.6
		c-0.2-0.2-0.3-0.5-0.4-0.9c0-0.2-0.1-0.6-0.1-1.1v-4.3h1.2v3.8c0,0.6,0,1,0.1,1.2c0.1,0.3,0.2,0.5,0.5,0.7c0.2,0.2,0.5,0.3,0.9,0.3
		s0.7-0.1,1-0.3c0.3-0.2,0.5-0.4,0.6-0.7c0.1-0.3,0.2-0.8,0.2-1.3v-3.7h1.2v6.9H138.2z"/>
	<path id="XMLID_206_" class="st9" d="M141.1,69.9v-6.9h1v1c0.5-0.8,1.2-1.1,2.2-1.1c0.4,0,0.8,0.1,1.1,0.2c0.3,0.1,0.6,0.3,0.8,0.6
		c0.2,0.2,0.3,0.5,0.4,0.9c0,0.2,0.1,0.6,0.1,1.1v4.2h-1.2v-4.2c0-0.5,0-0.8-0.1-1.1c-0.1-0.2-0.3-0.4-0.5-0.6
		c-0.2-0.1-0.5-0.2-0.8-0.2c-0.5,0-0.9,0.2-1.3,0.5s-0.5,0.9-0.5,1.8v3.8H141.1z"/>
	<path id="XMLID_208_" class="st9" d="M148.2,70.5l1.1,0.2c0,0.3,0.2,0.6,0.4,0.8c0.3,0.2,0.7,0.3,1.2,0.3c0.5,0,1-0.1,1.2-0.3
		c0.3-0.2,0.5-0.5,0.6-0.9c0.1-0.2,0.1-0.7,0.1-1.5c-0.5,0.6-1.1,0.9-1.9,0.9c-0.9,0-1.7-0.3-2.2-1c-0.5-0.7-0.8-1.5-0.8-2.5
		c0-0.7,0.1-1.3,0.4-1.8c0.2-0.6,0.6-1,1-1.3c0.5-0.3,1-0.5,1.6-0.5c0.8,0,1.5,0.3,2,1v-0.8h1.1V69c0,1.1-0.1,1.8-0.3,2.3
		c-0.2,0.4-0.6,0.8-1,1.1c-0.5,0.3-1.1,0.4-1.7,0.4c-0.8,0-1.5-0.2-2-0.6C148.5,71.8,148.2,71.2,148.2,70.5z M149.2,66.4
		c0,0.9,0.2,1.6,0.5,2s0.8,0.6,1.3,0.6c0.5,0,1-0.2,1.3-0.6c0.4-0.4,0.5-1.1,0.5-1.9c0-0.8-0.2-1.5-0.6-1.9
		c-0.4-0.4-0.8-0.6-1.3-0.6c-0.5,0-1,0.2-1.3,0.6C149.4,64.9,149.2,65.5,149.2,66.4z"/>
	<path id="XMLID_211_" class="st9" d="M166.4,66.6l1.3,0.3c-0.3,1-0.7,1.8-1.4,2.4c-0.7,0.5-1.5,0.8-2.5,0.8c-1,0-1.9-0.2-2.5-0.6
		s-1.1-1-1.5-1.8c-0.3-0.8-0.5-1.6-0.5-2.5c0-1,0.2-1.8,0.6-2.6c0.4-0.7,0.9-1.3,1.6-1.7c0.7-0.4,1.5-0.6,2.3-0.6
		c0.9,0,1.7,0.2,2.4,0.7c0.6,0.5,1.1,1.2,1.4,2l-1.2,0.3c-0.2-0.7-0.5-1.2-1-1.5s-0.9-0.5-1.6-0.5c-0.7,0-1.3,0.2-1.8,0.5
		c-0.5,0.3-0.8,0.8-1,1.4c-0.2,0.6-0.3,1.2-0.3,1.8c0,0.8,0.1,1.5,0.4,2.1c0.2,0.6,0.6,1,1.1,1.3c0.5,0.3,1,0.4,1.6,0.4
		c0.7,0,1.3-0.2,1.8-0.6C165.9,68,166.2,67.4,166.4,66.6z"/>
	<path id="XMLID_213_" class="st9" d="M169.1,61.8v-1.3h1.2v1.3H169.1z M169.1,69.9v-6.9h1.2v6.9H169.1z"/>
	<path id="XMLID_216_" class="st9" d="M174.5,68.9l0.2,1c-0.3,0.1-0.6,0.1-0.9,0.1c-0.4,0-0.8-0.1-1-0.2c-0.2-0.1-0.4-0.3-0.5-0.5
		c-0.1-0.2-0.1-0.7-0.1-1.4v-4h-0.9v-0.9h0.9v-1.7l1.2-0.7v2.4h1.2V64h-1.2v4c0,0.3,0,0.5,0.1,0.6s0.1,0.2,0.2,0.2
		c0.1,0.1,0.2,0.1,0.4,0.1C174.1,68.9,174.3,68.9,174.5,68.9z"/>
	<path id="XMLID_218_" class="st9" d="M175.6,72.6l-0.1-1.1c0.3,0.1,0.5,0.1,0.7,0.1c0.3,0,0.5,0,0.6-0.1c0.2-0.1,0.3-0.2,0.4-0.4
		c0.1-0.1,0.2-0.4,0.4-0.9c0-0.1,0.1-0.2,0.1-0.3l-2.6-6.9h1.3l1.4,4c0.2,0.5,0.4,1,0.5,1.6c0.1-0.5,0.3-1.1,0.5-1.6l1.5-4h1.2
		l-2.6,7c-0.3,0.8-0.5,1.3-0.7,1.6c-0.2,0.4-0.4,0.7-0.7,0.8c-0.3,0.2-0.6,0.3-1,0.3C176.1,72.7,175.9,72.7,175.6,72.6z"/>
	<path id="XMLID_220_" class="st9" d="M190.5,66.2v-1.1l4,0v3.5c-0.6,0.5-1.3,0.9-1.9,1.1s-1.3,0.4-2,0.4c-0.9,0-1.8-0.2-2.5-0.6
		c-0.8-0.4-1.3-1-1.7-1.7c-0.4-0.8-0.6-1.6-0.6-2.5c0-0.9,0.2-1.8,0.6-2.6c0.4-0.8,0.9-1.4,1.7-1.8c0.7-0.4,1.6-0.6,2.5-0.6
		c0.7,0,1.3,0.1,1.9,0.3c0.6,0.2,1,0.5,1.3,0.9c0.3,0.4,0.6,0.9,0.7,1.6l-1.1,0.3c-0.1-0.5-0.3-0.9-0.5-1.1
		c-0.2-0.3-0.5-0.5-0.9-0.7c-0.4-0.2-0.8-0.2-1.3-0.2c-0.6,0-1.1,0.1-1.5,0.3c-0.4,0.2-0.8,0.4-1,0.7c-0.3,0.3-0.5,0.6-0.6,0.9
		c-0.2,0.6-0.4,1.2-0.4,1.9c0,0.8,0.1,1.6,0.4,2.1c0.3,0.6,0.7,1,1.3,1.3c0.6,0.3,1.1,0.4,1.8,0.4c0.5,0,1.1-0.1,1.6-0.3
		c0.5-0.2,0.9-0.4,1.2-0.7v-1.8H190.5z"/>
	<path id="XMLID_222_" class="st9" d="M195.8,66.5c0-1.3,0.4-2.2,1.1-2.8c0.6-0.5,1.3-0.8,2.2-0.8c0.9,0,1.7,0.3,2.3,0.9
		c0.6,0.6,0.9,1.5,0.9,2.6c0,0.9-0.1,1.6-0.4,2.1c-0.3,0.5-0.7,0.9-1.2,1.2c-0.5,0.3-1.1,0.4-1.7,0.4c-1,0-1.7-0.3-2.3-0.9
		C196.1,68.5,195.8,67.6,195.8,66.5z M197,66.5c0,0.9,0.2,1.5,0.6,2s0.9,0.7,1.4,0.7c0.6,0,1.1-0.2,1.4-0.7s0.6-1.1,0.6-2
		c0-0.8-0.2-1.5-0.6-1.9s-0.9-0.7-1.4-0.7c-0.6,0-1.1,0.2-1.4,0.7S197,65.6,197,66.5z"/>
	<path id="XMLID_225_" class="st9" d="M205.5,69.9l-2.6-6.9h1.2l1.5,4.1c0.2,0.4,0.3,0.9,0.4,1.4c0.1-0.4,0.2-0.8,0.4-1.3l1.5-4.2
		h1.2l-2.6,6.9H205.5z"/>
	<path id="XMLID_227_" class="st9" d="M214.9,67.7l1.2,0.1c-0.2,0.7-0.5,1.2-1.1,1.6c-0.5,0.4-1.2,0.6-2,0.6c-1,0-1.8-0.3-2.4-0.9
		c-0.6-0.6-0.9-1.5-0.9-2.6c0-1.2,0.3-2.1,0.9-2.7c0.6-0.6,1.4-1,2.3-1c0.9,0,1.7,0.3,2.3,0.9c0.6,0.6,0.9,1.5,0.9,2.6
		c0,0.1,0,0.2,0,0.3h-5.1c0,0.8,0.3,1.3,0.6,1.7c0.4,0.4,0.9,0.6,1.4,0.6c0.4,0,0.8-0.1,1.1-0.3C214.5,68.6,214.8,68.2,214.9,67.7z
		 M211.1,65.8h3.8c-0.1-0.6-0.2-1-0.4-1.3c-0.4-0.4-0.9-0.7-1.4-0.7c-0.5,0-1,0.2-1.3,0.5S211.2,65.2,211.1,65.8z"/>
	<path id="XMLID_230_" class="st9" d="M217.6,69.9v-6.9h1v1c0.3-0.5,0.5-0.8,0.7-1s0.5-0.2,0.7-0.2c0.4,0,0.8,0.1,1.2,0.4l-0.4,1.1
		c-0.3-0.2-0.6-0.3-0.9-0.3c-0.3,0-0.5,0.1-0.7,0.2c-0.2,0.2-0.3,0.4-0.4,0.6c-0.1,0.4-0.2,0.9-0.2,1.4v3.6H217.6z"/>
	<path id="XMLID_232_" class="st9" d="M222,69.9v-6.9h1v1c0.5-0.8,1.2-1.1,2.2-1.1c0.4,0,0.8,0.1,1.1,0.2s0.6,0.3,0.8,0.6
		c0.2,0.2,0.3,0.5,0.4,0.9c0,0.2,0.1,0.6,0.1,1.1v4.2h-1.2v-4.2c0-0.5,0-0.8-0.1-1.1c-0.1-0.2-0.3-0.4-0.5-0.6
		c-0.2-0.1-0.5-0.2-0.8-0.2c-0.5,0-0.9,0.2-1.3,0.5c-0.4,0.3-0.5,0.9-0.5,1.8v3.8H222z"/>
	<path id="XMLID_234_" class="st9" d="M229.4,69.9v-6.9h1v1c0.2-0.3,0.5-0.6,0.9-0.8c0.4-0.2,0.8-0.3,1.2-0.3c0.5,0,0.9,0.1,1.3,0.3
		s0.6,0.5,0.7,0.9c0.5-0.8,1.3-1.2,2.1-1.2c0.7,0,1.2,0.2,1.6,0.6s0.5,1,0.5,1.7v4.7h-1.2v-4.3c0-0.5,0-0.8-0.1-1s-0.2-0.4-0.4-0.5
		c-0.2-0.1-0.4-0.2-0.7-0.2c-0.5,0-0.9,0.2-1.2,0.5c-0.3,0.3-0.5,0.8-0.5,1.5v4h-1.2v-4.5c0-0.5-0.1-0.9-0.3-1.2
		c-0.2-0.3-0.5-0.4-0.9-0.4c-0.3,0-0.6,0.1-0.9,0.3c-0.3,0.2-0.5,0.4-0.6,0.8s-0.2,0.8-0.2,1.4v3.6H229.4z"/>
	<path id="XMLID_236_" class="st9" d="M245.1,67.7l1.2,0.1c-0.2,0.7-0.5,1.2-1.1,1.6c-0.5,0.4-1.2,0.6-2,0.6c-1,0-1.8-0.3-2.4-0.9
		c-0.6-0.6-0.9-1.5-0.9-2.6c0-1.2,0.3-2.1,0.9-2.7c0.6-0.6,1.4-1,2.3-1c0.9,0,1.7,0.3,2.3,0.9c0.6,0.6,0.9,1.5,0.9,2.6
		c0,0.1,0,0.2,0,0.3h-5.1c0,0.8,0.3,1.3,0.6,1.7c0.4,0.4,0.9,0.6,1.4,0.6c0.4,0,0.8-0.1,1.1-0.3C244.7,68.6,244.9,68.2,245.1,67.7z
		 M241.3,65.8h3.8c-0.1-0.6-0.2-1-0.4-1.3c-0.4-0.4-0.9-0.7-1.4-0.7c-0.5,0-1,0.2-1.3,0.5S241.3,65.2,241.3,65.8z"/>
	<path id="XMLID_239_" class="st9" d="M247.8,69.9v-6.9h1v1c0.5-0.8,1.2-1.1,2.2-1.1c0.4,0,0.8,0.1,1.1,0.2s0.6,0.3,0.8,0.6
		c0.2,0.2,0.3,0.5,0.4,0.9c0,0.2,0.1,0.6,0.1,1.1v4.2h-1.2v-4.2c0-0.5,0-0.8-0.1-1.1c-0.1-0.2-0.3-0.4-0.5-0.6
		c-0.2-0.1-0.5-0.2-0.8-0.2c-0.5,0-0.9,0.2-1.3,0.5c-0.4,0.3-0.5,0.9-0.5,1.8v3.8H247.8z"/>
	<path id="XMLID_241_" class="st9" d="M257.7,68.9l0.2,1c-0.3,0.1-0.6,0.1-0.9,0.1c-0.4,0-0.8-0.1-1-0.2c-0.2-0.1-0.4-0.3-0.5-0.5
		s-0.1-0.7-0.1-1.4v-4h-0.9v-0.9h0.9v-1.7l1.2-0.7v2.4h1.2V64h-1.2v4c0,0.3,0,0.5,0.1,0.6s0.1,0.2,0.2,0.2c0.1,0.1,0.2,0.1,0.4,0.1
		C257.3,68.9,257.5,68.9,257.7,68.9z"/>
</g>
</svg>
