<svg width="512.001" height="512.001" xmlns="http://www.w3.org/2000/svg">

 <g>
  <title>background</title>
  <rect fill="none" id="canvas_background" height="602" width="802" y="-1" x="-1"/>
 </g>
 <g>
  <title>Layer 1</title>
  <path id="svg_1" fill="#a64e3a" d="m156.747,473.492c-9.848,0 -24.225,-4.823 -56.16,-40.565c-16.231,-18.165 -29.533,-36.033 -30.091,-36.785c-0.376,-0.507 -0.717,-1.036 -1.023,-1.587c-6.073,-10.932 -9.283,-23.321 -9.283,-35.828l0,-90.89c0,-7.925 6.424,-14.35 14.35,-14.35l116.075,0c16.624,0 32.305,6.421 44.155,18.081l59.435,58.485c17.218,17.218 17.218,45.102 0.083,62.239c-0.026,0.026 -0.146,0.145 -0.171,0.169c-8.227,8.227 -19.264,12.798 -31.004,12.798c-11.739,0 -22.777,-4.572 -31.078,-12.873l-59.37,-59.372c-5.889,-0.044 -15.45,-0.089 -23.087,-0.123l-10.867,-0.052c-7.925,-0.042 -14.317,-6.499 -14.275,-14.424c0.042,-7.899 6.457,-14.275 14.348,-14.275c0.026,0 0.05,0 0.076,0l10.85,0.052c6.784,0.03 14.038,0.065 19.604,0.099c2.808,0.017 5.19,0.036 6.876,0.056c4.159,0.046 8.461,0.093 12.618,4.223l63.521,63.521c2.88,2.88 6.71,4.467 10.784,4.467c4.075,0 7.905,-1.586 10.785,-4.467c0.026,-0.026 0.146,-0.145 0.171,-0.169c5.873,-5.873 5.873,-15.549 -0.075,-21.496l-59.353,-58.403c-6.447,-6.344 -14.98,-9.838 -24.026,-9.838l-101.726,0l0,76.541c0,7.337 1.808,14.609 5.236,21.088c2.615,3.468 13.585,17.86 26.469,32.423c25.476,28.797 35.211,32.208 36.505,32.554l155.149,-0.03c10.576,0 22.902,-5.538 34.621,-11.21c9.893,-4.787 83.334,-54.602 127.304,-84.877c0.24,-0.165 0.485,-0.323 0.735,-0.474c8.199,-4.939 10.853,-15.631 5.913,-23.835c-2.391,-3.971 -6.189,-6.774 -10.689,-7.892c-4.415,-1.096 -8.989,-0.441 -12.91,1.842l-107.186,71.082c-6.604,4.38 -15.51,2.574 -19.889,-4.028c-4.381,-6.605 -2.577,-15.51 4.029,-19.89l107.483,-71.28c0.172,-0.115 0.349,-0.227 0.527,-0.333c10.541,-6.347 22.922,-8.211 34.861,-5.246c11.942,2.965 22.014,10.402 28.362,20.94c13.018,21.622 6.146,49.764 -15.285,62.975c-13.296,9.152 -115.77,79.597 -130.751,86.847c-14.716,7.122 -30.476,14.076 -47.12,14.076l-155.498,0.03c-0.003,0.004 -0.006,0.004 -0.008,0.004z"/>
  <path id="svg_3" fill="#a64e3a" d="m98.49,454.142l-84.14,0c-7.925,0 -14.35,-6.424 -14.35,-14.35l0,-189.583c0,-7.925 6.424,-14.35 14.35,-14.35l84.14,0c7.925,0 14.35,6.424 14.35,14.35l0,189.581c0,7.926 -6.425,14.352 -14.35,14.352zm-69.791,-28.7l55.441,0l0,-160.883l-55.441,0l0,160.883z"/>
  <path id="svg_5" fill="#a64e3a" d="m412.6,272.365c-3.935,0 -7.885,-0.983 -11.422,-2.841l-48.608,-25.554l-48.608,25.555c-3.536,1.858 -7.486,2.841 -11.422,2.841l0,0c-7.244,0 -14.096,-3.2 -18.802,-8.781c-4.649,-5.516 -6.612,-12.781 -5.387,-19.933l9.284,-54.127l-39.324,-38.331c-6.739,-6.569 -9.118,-16.209 -6.211,-25.159c2.909,-8.95 10.5,-15.351 19.813,-16.704l54.345,-7.897l24.304,-49.245c4.166,-8.439 12.599,-13.681 22.009,-13.681c9.412,0 17.845,5.242 22.009,13.682l24.304,49.244l54.346,7.897c9.311,1.353 16.902,7.753 19.811,16.704c2.909,8.95 0.528,18.59 -6.209,25.159l-39.324,38.331l9.283,54.125c1.227,7.15 -0.736,14.416 -5.385,19.932c-4.707,5.583 -11.561,8.783 -18.806,8.783zm-60.03,-58.957c2.295,0 4.586,0.55 6.677,1.649l47.832,25.145l-9.135,-53.26c-0.798,-4.655 0.746,-9.405 4.127,-12.701l38.697,-37.719l-53.478,-7.772c-4.674,-0.679 -8.713,-3.615 -10.804,-7.849l-23.916,-48.459l-23.915,48.458c-2.091,4.235 -6.13,7.171 -10.804,7.849l-53.477,7.772l38.697,37.718c3.381,3.298 4.925,8.046 4.127,12.702l-9.135,53.26l47.83,-25.145c2.091,-1.098 4.384,-1.648 6.677,-1.648z"/>
  <g id="svg_6"/>
  <g id="svg_7"/>
  <g id="svg_8"/>
  <g id="svg_9"/>
  <g id="svg_10"/>
  <g id="svg_11"/>
  <g id="svg_12"/>
  <g id="svg_13"/>
  <g id="svg_14"/>
  <g id="svg_15"/>
  <g id="svg_16"/>
  <g id="svg_17"/>
  <g id="svg_18"/>
  <g id="svg_19"/>
  <g id="svg_20"/>
 </g>
</svg>